<svg xmlns="http://www.w3.org/2000/svg" viewBox="-2.00 -2.00 1264.00 895.00">
<rect x="-2.00" y="-2.00" width="1264.00" height="895.00" fill="white"/>
<polygon points="0.00,0.00 1260.00,0.00 1260.00,891.00 0.00,891.00 0.00,0.00" fill="none" stroke="#840000" stroke-width="0.45"/><polygon points="30.00,30.00 1230.00,30.00 1230.00,861.00 30.00,861.00 30.00,30.00" fill="none" stroke="#840000" stroke-width="0.45"/><polygon points="36.00,36.00 1224.00,36.00 1224.00,855.00 36.00,855.00 36.00,36.00" fill="none" stroke="#840000" stroke-width="0.45"/><polyline points="180.00,30.00 180.00,36.00" fill="none" stroke="#840000" stroke-width="0.45"/><text x="105.00" y="33.00" fill="#840000" font-size="5.27px">1</text><polyline points="330.00,30.00 330.00,36.00" fill="none" stroke="#840000" stroke-width="0.45"/><text x="255.00" y="33.00" fill="#840000" font-size="5.27px">2</text><polyline points="480.00,30.00 480.00,36.00" fill="none" stroke="#840000" stroke-width="0.45"/><text x="405.00" y="33.00" fill="#840000" font-size="5.27px">3</text><polyline points="630.00,30.00 630.00,36.00" fill="none" stroke="#840000" stroke-width="0.45"/><text x="555.00" y="33.00" fill="#840000" font-size="5.27px">4</text><polyline points="780.00,30.00 780.00,36.00" fill="none" stroke="#840000" stroke-width="0.45"/><text x="705.00" y="33.00" fill="#840000" font-size="5.27px">5</text><polyline points="930.00,30.00 930.00,36.00" fill="none" stroke="#840000" stroke-width="0.45"/><text x="855.00" y="33.00" fill="#840000" font-size="5.27px">6</text><polyline points="1080.00,30.00 1080.00,36.00" fill="none" stroke="#840000" stroke-width="0.45"/><text x="1005.00" y="33.00" fill="#840000" font-size="5.27px">7</text><polyline points="180.00,861.00 180.00,855.00" fill="none" stroke="#840000" stroke-width="0.45"/><text x="105.00" y="858.00" fill="#840000" font-size="5.27px">1</text><polyline points="330.00,861.00 330.00,855.00" fill="none" stroke="#840000" stroke-width="0.45"/><text x="255.00" y="858.00" fill="#840000" font-size="5.27px">2</text><polyline points="480.00,861.00 480.00,855.00" fill="none" stroke="#840000" stroke-width="0.45"/><text x="405.00" y="858.00" fill="#840000" font-size="5.27px">3</text><polyline points="630.00,861.00 630.00,855.00" fill="none" stroke="#840000" stroke-width="0.45"/><text x="555.00" y="858.00" fill="#840000" font-size="5.27px">4</text><polyline points="780.00,861.00 780.00,855.00" fill="none" stroke="#840000" stroke-width="0.45"/><text x="705.00" y="858.00" fill="#840000" font-size="5.27px">5</text><polyline points="930.00,861.00 930.00,855.00" fill="none" stroke="#840000" stroke-width="0.45"/><text x="855.00" y="858.00" fill="#840000" font-size="5.27px">6</text><polyline points="1080.00,861.00 1080.00,855.00" fill="none" stroke="#840000" stroke-width="0.45"/><text x="1005.00" y="858.00" fill="#840000" font-size="5.27px">7</text><polyline points="30.00,180.00 36.00,180.00" fill="none" stroke="#840000" stroke-width="0.45"/><text x="33.00" y="105.00" fill="#840000" font-size="5.27px">A</text><polyline points="30.00,330.00 36.00,330.00" fill="none" stroke="#840000" stroke-width="0.45"/><text x="33.00" y="255.00" fill="#840000" font-size="5.27px">B</text><polyline points="30.00,480.00 36.00,480.00" fill="none" stroke="#840000" stroke-width="0.45"/><text x="33.00" y="405.00" fill="#840000" font-size="5.27px">C</text><polyline points="30.00,630.00 36.00,630.00" fill="none" stroke="#840000" stroke-width="0.45"/><text x="33.00" y="555.00" fill="#840000" font-size="5.27px">D</text><polyline points="30.00,780.00 36.00,780.00" fill="none" stroke="#840000" stroke-width="0.45"/><text x="33.00" y="705.00" fill="#840000" font-size="5.27px">E</text><polyline points="1230.00,180.00 1224.00,180.00" fill="none" stroke="#840000" stroke-width="0.45"/><text x="1227.00" y="105.00" fill="#840000" font-size="5.27px">A</text><polyline points="1230.00,330.00 1224.00,330.00" fill="none" stroke="#840000" stroke-width="0.45"/><text x="1227.00" y="255.00" fill="#840000" font-size="5.27px">B</text><polyline points="1230.00,480.00 1224.00,480.00" fill="none" stroke="#840000" stroke-width="0.45"/><text x="1227.00" y="405.00" fill="#840000" font-size="5.27px">C</text><polyline points="1230.00,630.00 1224.00,630.00" fill="none" stroke="#840000" stroke-width="0.45"/><text x="1227.00" y="555.00" fill="#840000" font-size="5.27px">D</text><polyline points="1230.00,780.00 1224.00,780.00" fill="none" stroke="#840000" stroke-width="0.45"/><text x="1227.00" y="705.00" fill="#840000" font-size="5.27px">E</text><polygon points="900.00,759.00 1224.00,759.00 1224.00,855.00 900.00,855.00 900.00,759.00" fill="none" stroke="#840000" stroke-width="0.45"/><polyline points="900.00,844.50 1224.00,844.50" fill="none" stroke="#840000" stroke-width="0.45"/><polyline points="900.00,835.50 1224.00,835.50" fill="none" stroke="#840000" stroke-width="0.45"/><polyline points="900.00,823.50 1224.00,823.50" fill="none" stroke="#840000" stroke-width="0.45"/><polyline points="900.00,805.50 1224.00,805.50" fill="none" stroke="#840000" stroke-width="0.45"/><polyline points="960.00,844.50 960.00,835.50" fill="none" stroke="#840000" stroke-width="0.45"/><polyline points="1152.00,855.00 1152.00,835.50" fill="none" stroke="#840000" stroke-width="0.45"/><text x="903.00" y="850.20" fill="#840000" font-size="6.08px">kicad-render</text><text x="1158.00" y="850.20" fill="#840000" font-size="6.08px">Id: 1/1</text><text x="903.00" y="841.80" fill="#840000" font-size="6.08px">Size: A3</text><text x="903.00" y="831.30" fill="#840000" font-size="8.10px">Title: CCD Carrier Board - Control</text><text x="903.00" y="819.60" fill="#840000" font-size="6.08px">File: ccd-control.kicad_sch</text><text x="903.00" y="811.50" fill="#840000" font-size="6.08px">Sheet: /</text><polyline points="237.74,82.30 237.74,70.10" fill="none" stroke="#840000" stroke-width="1.52"/><polyline points="242.32,82.30 242.32,70.10" fill="none" stroke="#840000" stroke-width="1.52"/><polyline points="237.74,116.59 237.74,104.39" fill="none" stroke="#840000" stroke-width="1.52"/><polyline points="242.32,116.59 242.32,104.39" fill="none" stroke="#840000" stroke-width="1.52"/><polyline points="237.74,154.69 237.74,142.49" fill="none" stroke="#840000" stroke-width="1.52"/><polyline points="242.32,154.69 242.32,142.49" fill="none" stroke="#840000" stroke-width="1.52"/><polyline points="237.74,188.98 237.74,176.78" fill="none" stroke="#840000" stroke-width="1.52"/><polyline points="242.32,188.98 242.32,176.78" fill="none" stroke="#840000" stroke-width="1.52"/><polyline points="237.74,223.27 237.74,211.07" fill="none" stroke="#840000" stroke-width="1.52"/><polyline points="242.32,223.27 242.32,211.07" fill="none" stroke="#840000" stroke-width="1.52"/><polyline points="237.74,261.37 237.74,249.17" fill="none" stroke="#840000" stroke-width="1.52"/><polyline points="242.32,261.37 242.32,249.17" fill="none" stroke="#840000" stroke-width="1.52"/><polygon points="76.20,342.90 106.68,342.90 106.68,373.38 76.20,373.38 76.20,342.90" fill="#ffffc2" stroke="#840000" stroke-width="0.76"/><polygon points="163.83,342.90 194.31,342.90 194.31,373.38 163.83,373.38 163.83,342.90" fill="#ffffc2" stroke="#840000" stroke-width="0.76"/><polygon points="191.26,83.82 197.36,83.82 197.36,68.58 191.26,68.58 191.26,83.82" fill="none" stroke="#840000" stroke-width="0.76"/><polygon points="191.26,118.11 197.36,118.11 197.36,102.87 191.26,102.87 191.26,118.11" fill="none" stroke="#840000" stroke-width="0.76"/><polygon points="191.26,156.21 197.36,156.21 197.36,140.97 191.26,140.97 191.26,156.21" fill="none" stroke="#840000" stroke-width="0.76"/><polygon points="191.26,190.50 197.36,190.50 197.36,175.26 191.26,175.26 191.26,190.50" fill="none" stroke="#840000" stroke-width="0.76"/><polygon points="191.26,224.79 197.36,224.79 197.36,209.55 191.26,209.55 191.26,224.79" fill="none" stroke="#840000" stroke-width="0.76"/><polygon points="191.26,262.89 197.36,262.89 197.36,247.65 191.26,247.65 191.26,262.89" fill="none" stroke="#840000" stroke-width="0.76"/><polygon points="88.39,308.61 94.49,308.61 94.49,293.37 88.39,293.37 88.39,308.61" fill="none" stroke="#840000" stroke-width="0.76"/><polygon points="176.02,308.61 182.12,308.61 182.12,293.37 176.02,293.37 176.02,308.61" fill="none" stroke="#840000" stroke-width="0.76"/><path d="M 260.99 350.90 A 0.55 0.55 0 0 1 261.37 351.66" stroke="#840000" stroke-width="0.46"/><path d="M 261.37 349.76 A 0.76 0.76 0 0 1 262.13 349.00" stroke="#840000" stroke-width="0.46"/><path d="M 262.13 349.00 A 0.76 0.76 0 0 1 262.89 349.76" stroke="#840000" stroke-width="0.46"/><path d="M 262.13 350.52 A 0.76 0.76 0 0 1 261.37 349.76" stroke="#840000" stroke-width="0.46"/><path d="M 262.13 352.43 A 0.76 0.76 0 0 1 261.37 351.66" stroke="#840000" stroke-width="0.46"/><path d="M 262.89 351.66 A 0.76 0.76 0 0 1 262.13 352.42" stroke="#840000" stroke-width="0.46"/><path d="M 264.03 349.76 A 1.70 1.70 0 0 1 262.13 350.52" stroke="#840000" stroke-width="0.46"/><polyline points="262.89,351.66 262.89,349.76" fill="none" stroke="#840000" stroke-width="0.46"/><polyline points="262.89,369.19 262.89,362.33 262.13,364.62 263.65,364.62 262.89,362.33 262.89,363.09" fill="none" stroke="#840000" stroke-width="0.46"/><polyline points="265.18,350.52 265.18,353.57 275.84,362.71 275.84,365.76" fill="none" stroke="#840000" stroke-width="0.46"/><polyline points="265.18,362.33 265.18,369.19 264.41,366.90 265.94,366.90 265.18,369.19 265.18,368.43" fill="none" stroke="#840000" stroke-width="0.46"/><polygon points="267.46,350.52 273.56,350.52 273.56,365.76 267.46,365.76 267.46,350.52" fill="none" stroke="#840000" stroke-width="0.76"/><polygon points="125.73,38.10 171.45,38.10 171.45,144.78 125.73,144.78 125.73,38.10" fill="#ffffc2" stroke="#840000" stroke-width="0.76"/><polyline points="228.60,76.20 194.31,76.20" fill="none" stroke="#009600" stroke-width="0.46"/><polyline points="194.31,76.20 194.31,87.63" fill="none" stroke="#009600" stroke-width="0.46"/><polyline points="228.60,110.49 194.31,110.49" fill="none" stroke="#009600" stroke-width="0.46"/><polyline points="194.31,110.49 194.31,121.92" fill="none" stroke="#009600" stroke-width="0.46"/><polyline points="228.60,148.59 194.31,148.59" fill="none" stroke="#009600" stroke-width="0.46"/><polyline points="194.31,148.59 194.31,160.02" fill="none" stroke="#009600" stroke-width="0.46"/><polyline points="228.60,182.88 194.31,182.88" fill="none" stroke="#009600" stroke-width="0.46"/><polyline points="194.31,182.88 194.31,194.31" fill="none" stroke="#009600" stroke-width="0.46"/><polyline points="236.98,76.20 228.60,76.20" fill="none" stroke="#a90000" stroke-width="0.46"/><polyline points="243.08,76.20 251.46,76.20" fill="none" stroke="#a90000" stroke-width="0.46"/><polyline points="236.98,110.49 228.60,110.49" fill="none" stroke="#a90000" stroke-width="0.46"/><polyline points="243.08,110.49 251.46,110.49" fill="none" stroke="#a90000" stroke-width="0.46"/><polyline points="236.98,148.59 228.60,148.59" fill="none" stroke="#a90000" stroke-width="0.46"/><polyline points="243.08,148.59 251.46,148.59" fill="none" stroke="#a90000" stroke-width="0.46"/><polyline points="236.98,182.88 228.60,182.88" fill="none" stroke="#a90000" stroke-width="0.46"/><polyline points="243.08,182.88 251.46,182.88" fill="none" stroke="#a90000" stroke-width="0.46"/><polyline points="236.98,217.17 228.60,217.17" fill="none" stroke="#a90000" stroke-width="0.46"/><polyline points="243.08,217.17 251.46,217.17" fill="none" stroke="#a90000" stroke-width="0.46"/><polyline points="236.98,255.27 228.60,255.27" fill="none" stroke="#a90000" stroke-width="0.46"/><polyline points="243.08,255.27 251.46,255.27" fill="none" stroke="#a90000" stroke-width="0.46"/><polyline points="76.20,350.52 68.58,350.52" fill="none" stroke="#a90000" stroke-width="0.46"/><text x="76.73" y="350.52" fill="#a90000" font-size="5.14px" dominant-baseline="central">G</text><text x="72.39" y="351.25" fill="#a90000" font-size="5.14px" text-anchor="middle">1</text><polyline points="76.20,365.76 68.58,365.76" fill="none" stroke="#a90000" stroke-width="0.46"/><text x="76.73" y="365.76" fill="#a90000" font-size="5.14px" dominant-baseline="central">S</text><text x="72.39" y="366.49" fill="#a90000" font-size="5.14px" text-anchor="middle">2</text><polyline points="106.68,358.14 114.30,358.14" fill="none" stroke="#a90000" stroke-width="0.46"/><text x="106.15" y="358.14" fill="#a90000" font-size="5.14px" text-anchor="end" dominant-baseline="central">D</text><text x="110.49" y="358.87" fill="#a90000" font-size="5.14px" text-anchor="middle">3</text><polyline points="163.83,350.52 156.21,350.52" fill="none" stroke="#a90000" stroke-width="0.46"/><text x="164.36" y="350.52" fill="#a90000" font-size="5.14px" dominant-baseline="central">G</text><text x="160.02" y="351.25" fill="#a90000" font-size="5.14px" text-anchor="middle">1</text><polyline points="163.83,365.76 156.21,365.76" fill="none" stroke="#a90000" stroke-width="0.46"/><text x="164.36" y="365.76" fill="#a90000" font-size="5.14px" dominant-baseline="central">S</text><text x="160.02" y="366.49" fill="#a90000" font-size="5.14px" text-anchor="middle">2</text><polyline points="194.31,358.14 201.93,358.14" fill="none" stroke="#a90000" stroke-width="0.46"/><text x="193.78" y="358.14" fill="#a90000" font-size="5.14px" text-anchor="end" dominant-baseline="central">D</text><text x="198.12" y="358.87" fill="#a90000" font-size="5.14px" text-anchor="middle">3</text><polyline points="194.31,68.58 194.31,64.77" fill="none" stroke="#a90000" stroke-width="0.46"/><polyline points="194.31,83.82 194.31,87.63" fill="none" stroke="#a90000" stroke-width="0.46"/><polyline points="194.31,102.87 194.31,99.06" fill="none" stroke="#a90000" stroke-width="0.46"/><polyline points="194.31,118.11 194.31,121.92" fill="none" stroke="#a90000" stroke-width="0.46"/><polyline points="194.31,140.97 194.31,137.16" fill="none" stroke="#a90000" stroke-width="0.46"/><polyline points="194.31,156.21 194.31,160.02" fill="none" stroke="#a90000" stroke-width="0.46"/><polyline points="194.31,175.26 194.31,171.45" fill="none" stroke="#a90000" stroke-width="0.46"/><polyline points="194.31,190.50 194.31,194.31" fill="none" stroke="#a90000" stroke-width="0.46"/><polyline points="194.31,209.55 194.31,205.74" fill="none" stroke="#a90000" stroke-width="0.46"/><polyline points="194.31,224.79 194.31,228.60" fill="none" stroke="#a90000" stroke-width="0.46"/><polyline points="194.31,247.65 194.31,243.84" fill="none" stroke="#a90000" stroke-width="0.46"/><polyline points="194.31,262.89 194.31,266.70" fill="none" stroke="#a90000" stroke-width="0.46"/><polyline points="91.44,293.37 91.44,289.56" fill="none" stroke="#a90000" stroke-width="0.46"/><polyline points="91.44,308.61 91.44,312.42" fill="none" stroke="#a90000" stroke-width="0.46"/><polyline points="179.07,293.37 179.07,289.56" fill="none" stroke="#a90000" stroke-width="0.46"/><polyline points="179.07,308.61 179.07,312.42" fill="none" stroke="#a90000" stroke-width="0.46"/><polyline points="270.51,350.52 270.51,346.71" fill="none" stroke="#a90000" stroke-width="0.46"/><polyline points="270.51,365.76 270.51,369.57" fill="none" stroke="#a90000" stroke-width="0.46"/><polyline points="125.73,45.72 118.11,45.72" fill="none" stroke="#a90000" stroke-width="0.46"/><text x="126.26" y="45.72" fill="#a90000" font-size="5.14px" dominant-baseline="central">1A</text><text x="121.92" y="46.45" fill="#a90000" font-size="5.14px" text-anchor="middle">1</text><polyline points="125.73,60.96 118.11,60.96" fill="none" stroke="#a90000" stroke-width="0.46"/><text x="126.26" y="60.96" fill="#a90000" font-size="5.14px" dominant-baseline="central">1Y</text><text x="121.92" y="61.69" fill="#a90000" font-size="5.14px" text-anchor="middle">2</text><polyline points="125.73,76.20 118.11,76.20" fill="none" stroke="#a90000" stroke-width="0.46"/><text x="126.26" y="76.20" fill="#a90000" font-size="5.14px" dominant-baseline="central">2A</text><text x="121.92" y="76.93" fill="#a90000" font-size="5.14px" text-anchor="middle">3</text><polyline points="125.73,91.44 118.11,91.44" fill="none" stroke="#a90000" stroke-width="0.46"/><text x="126.26" y="91.44" fill="#a90000" font-size="5.14px" dominant-baseline="central">2Y</text><text x="121.92" y="92.17" fill="#a90000" font-size="5.14px" text-anchor="middle">4</text><polyline points="125.73,106.68 118.11,106.68" fill="none" stroke="#a90000" stroke-width="0.46"/><text x="126.26" y="106.68" fill="#a90000" font-size="5.14px" dominant-baseline="central">3A</text><text x="121.92" y="107.41" fill="#a90000" font-size="5.14px" text-anchor="middle">5</text><polyline points="125.73,121.92 118.11,121.92" fill="none" stroke="#a90000" stroke-width="0.46"/><text x="126.26" y="121.92" fill="#a90000" font-size="5.14px" dominant-baseline="central">3Y</text><text x="121.92" y="122.65" fill="#a90000" font-size="5.14px" text-anchor="middle">6</text><polyline points="125.73,137.16 118.11,137.16" fill="none" stroke="#a90000" stroke-width="0.46"/><text x="126.26" y="137.16" fill="#a90000" font-size="5.14px" dominant-baseline="central">GND</text><text x="121.92" y="137.89" fill="#a90000" font-size="5.14px" text-anchor="middle">7</text><polyline points="171.45,45.72 179.07,45.72" fill="none" stroke="#a90000" stroke-width="0.46"/><text x="170.92" y="45.72" fill="#a90000" font-size="5.14px" text-anchor="end" dominant-baseline="central">4Y</text><text x="175.26" y="46.45" fill="#a90000" font-size="5.14px" text-anchor="middle">8</text><polyline points="171.45,60.96 179.07,60.96" fill="none" stroke="#a90000" stroke-width="0.46"/><text x="170.92" y="60.96" fill="#a90000" font-size="5.14px" text-anchor="end" dominant-baseline="central">4A</text><text x="175.26" y="61.69" fill="#a90000" font-size="5.14px" text-anchor="middle">9</text><polyline points="171.45,76.20 179.07,76.20" fill="none" stroke="#a90000" stroke-width="0.46"/><text x="170.92" y="76.20" fill="#a90000" font-size="5.14px" text-anchor="end" dominant-baseline="central">5Y</text><text x="175.26" y="76.93" fill="#a90000" font-size="5.14px" text-anchor="middle">10</text><polyline points="171.45,91.44 179.07,91.44" fill="none" stroke="#a90000" stroke-width="0.46"/><text x="170.92" y="91.44" fill="#a90000" font-size="5.14px" text-anchor="end" dominant-baseline="central">5A</text><text x="175.26" y="92.17" fill="#a90000" font-size="5.14px" text-anchor="middle">11</text><polyline points="171.45,106.68 179.07,106.68" fill="none" stroke="#a90000" stroke-width="0.46"/><text x="170.92" y="106.68" fill="#a90000" font-size="5.14px" text-anchor="end" dominant-baseline="central">6Y</text><text x="175.26" y="107.41" fill="#a90000" font-size="5.14px" text-anchor="middle">12</text><polyline points="171.45,121.92 179.07,121.92" fill="none" stroke="#a90000" stroke-width="0.46"/><text x="170.92" y="121.92" fill="#a90000" font-size="5.14px" text-anchor="end" dominant-baseline="central">6A</text><text x="175.26" y="122.65" fill="#a90000" font-size="5.14px" text-anchor="middle">13</text><polyline points="171.45,137.16 179.07,137.16" fill="none" stroke="#a90000" stroke-width="0.46"/><text x="170.92" y="137.16" fill="#a90000" font-size="5.14px" text-anchor="end" dominant-baseline="central">VCC</text><text x="175.26" y="137.89" fill="#a90000" font-size="5.14px" text-anchor="middle">14</text><text x="240.03" y="76.20" fill="#006464" font-size="5.14px" transform="rotate(90.00,240.03,76.20)" text-anchor="middle" dominant-baseline="central">C11</text><text x="240.03" y="76.20" fill="#006464" font-size="5.14px" transform="rotate(90.00,240.03,76.20)" text-anchor="middle" dominant-baseline="central">1μF/16V</text><text x="240.03" y="76.20" fill="#c86482" font-size="5.14px" transform="rotate(90.00,240.03,76.20)" text-anchor="middle" dominant-baseline="central">Capacitor_SMD:C_0805_2012Metric</text><text x="240.03" y="110.49" fill="#006464" font-size="5.14px" transform="rotate(90.00,240.03,110.49)" text-anchor="middle" dominant-baseline="central">C12</text><text x="240.03" y="110.49" fill="#006464" font-size="5.14px" transform="rotate(90.00,240.03,110.49)" text-anchor="middle" dominant-baseline="central">2.2μF/16V</text><text x="240.03" y="110.49" fill="#c86482" font-size="5.14px" transform="rotate(90.00,240.03,110.49)" text-anchor="middle" dominant-baseline="central">Capacitor_SMD:C_0805_2012Metric</text><text x="240.03" y="148.59" fill="#006464" font-size="5.14px" transform="rotate(90.00,240.03,148.59)" text-anchor="middle" dominant-baseline="central">C13</text><text x="240.03" y="148.59" fill="#006464" font-size="5.14px" transform="rotate(90.00,240.03,148.59)" text-anchor="middle" dominant-baseline="central">3.3μF/16V</text><text x="240.03" y="148.59" fill="#c86482" font-size="5.14px" transform="rotate(90.00,240.03,148.59)" text-anchor="middle" dominant-baseline="central">Capacitor_SMD:C_0805_2012Metric</text><text x="240.03" y="182.88" fill="#006464" font-size="5.14px" transform="rotate(90.00,240.03,182.88)" text-anchor="middle" dominant-baseline="central">C14</text><text x="240.03" y="182.88" fill="#006464" font-size="5.14px" transform="rotate(90.00,240.03,182.88)" text-anchor="middle" dominant-baseline="central">4.7μF/16V</text><text x="240.03" y="182.88" fill="#c86482" font-size="5.14px" transform="rotate(90.00,240.03,182.88)" text-anchor="middle" dominant-baseline="central">Capacitor_SMD:C_0805_2012Metric</text><text x="240.03" y="217.17" fill="#006464" font-size="5.14px" transform="rotate(90.00,240.03,217.17)" text-anchor="middle" dominant-baseline="central">C15</text><text x="240.03" y="217.17" fill="#006464" font-size="5.14px" transform="rotate(90.00,240.03,217.17)" text-anchor="middle" dominant-baseline="central">6.8μF/16V</text><text x="240.03" y="217.17" fill="#c86482" font-size="5.14px" transform="rotate(90.00,240.03,217.17)" text-anchor="middle" dominant-baseline="central">Capacitor_SMD:C_0805_2012Metric</text><text x="240.03" y="255.27" fill="#006464" font-size="5.14px" transform="rotate(90.00,240.03,255.27)" text-anchor="middle" dominant-baseline="central">C40</text><text x="240.03" y="255.27" fill="#006464" font-size="5.14px" transform="rotate(90.00,240.03,255.27)" text-anchor="middle" dominant-baseline="central">10μF/16V</text><text x="240.03" y="255.27" fill="#c86482" font-size="5.14px" transform="rotate(90.00,240.03,255.27)" text-anchor="middle" dominant-baseline="central">Capacitor_SMD:C_0805_2012Metric</text><text x="91.44" y="331.47" fill="#006464" font-size="5.14px" text-anchor="middle" dominant-baseline="central">Q12</text><text x="91.44" y="384.81" fill="#006464" font-size="5.14px" text-anchor="middle" dominant-baseline="central">AO3408</text><text x="91.44" y="396.24" fill="#c86482" font-size="5.14px" text-anchor="middle" dominant-baseline="central">Package_TO_SOT_SMD:SOT-23</text><text x="179.07" y="331.47" fill="#006464" font-size="5.14px" text-anchor="middle" dominant-baseline="central">Q13</text><text x="179.07" y="384.81" fill="#006464" font-size="5.14px" text-anchor="middle" dominant-baseline="central">AO3408</text><text x="179.07" y="396.24" fill="#c86482" font-size="5.14px" text-anchor="middle" dominant-baseline="central">Package_TO_SOT_SMD:SOT-23</text><text x="194.31" y="76.20" fill="#006464" font-size="5.14px" text-anchor="middle" dominant-baseline="central">R21</text><text x="194.31" y="76.20" fill="#006464" font-size="5.14px" text-anchor="middle" dominant-baseline="central">100k</text><text x="194.31" y="76.20" fill="#c86482" font-size="5.14px" text-anchor="middle" dominant-baseline="central">Resistor_SMD:R_0805_2012Metric</text><text x="194.31" y="110.49" fill="#006464" font-size="5.14px" text-anchor="middle" dominant-baseline="central">R22</text><text x="194.31" y="110.49" fill="#006464" font-size="5.14px" text-anchor="middle" dominant-baseline="central">100k</text><text x="194.31" y="110.49" fill="#c86482" font-size="5.14px" text-anchor="middle" dominant-baseline="central">Resistor_SMD:R_0805_2012Metric</text><text x="194.31" y="148.59" fill="#006464" font-size="5.14px" text-anchor="middle" dominant-baseline="central">R23</text><text x="194.31" y="148.59" fill="#006464" font-size="5.14px" text-anchor="middle" dominant-baseline="central">100k</text><text x="194.31" y="148.59" fill="#c86482" font-size="5.14px" text-anchor="middle" dominant-baseline="central">Resistor_SMD:R_0805_2012Metric</text><text x="194.31" y="182.88" fill="#006464" font-size="5.14px" text-anchor="middle" dominant-baseline="central">R24</text><text x="194.31" y="182.88" fill="#006464" font-size="5.14px" text-anchor="middle" dominant-baseline="central">100k</text><text x="194.31" y="182.88" fill="#c86482" font-size="5.14px" text-anchor="middle" dominant-baseline="central">Resistor_SMD:R_0805_2012Metric</text><text x="194.31" y="217.17" fill="#006464" font-size="5.14px" text-anchor="middle" dominant-baseline="central">R25</text><text x="194.31" y="217.17" fill="#006464" font-size="5.14px" text-anchor="middle" dominant-baseline="central">100k</text><text x="194.31" y="217.17" fill="#c86482" font-size="5.14px" text-anchor="middle" dominant-baseline="central">Resistor_SMD:R_0805_2012Metric</text><text x="194.31" y="255.27" fill="#006464" font-size="5.14px" text-anchor="middle" dominant-baseline="central">R26</text><text x="194.31" y="255.27" fill="#006464" font-size="5.14px" text-anchor="middle" dominant-baseline="central">10k</text><text x="194.31" y="255.27" fill="#c86482" font-size="5.14px" text-anchor="middle" dominant-baseline="central">Resistor_SMD:R_0805_2012Metric</text><text x="91.44" y="300.99" fill="#006464" font-size="5.14px" text-anchor="middle" dominant-baseline="central">R27</text><text x="91.44" y="300.99" fill="#006464" font-size="5.14px" text-anchor="middle" dominant-baseline="central">10k</text><text x="91.44" y="300.99" fill="#c86482" font-size="5.14px" text-anchor="middle" dominant-baseline="central">Resistor_SMD:R_0805_2012Metric</text><text x="179.07" y="300.99" fill="#006464" font-size="5.14px" text-anchor="middle" dominant-baseline="central">R36</text><text x="179.07" y="300.99" fill="#006464" font-size="5.14px" text-anchor="middle" dominant-baseline="central">100k</text><text x="179.07" y="300.99" fill="#c86482" font-size="5.14px" text-anchor="middle" dominant-baseline="central">Resistor_SMD:R_0805_2012Metric</text><text x="270.51" y="358.14" fill="#006464" font-size="5.14px" text-anchor="middle" dominant-baseline="central">TH1</text><text x="270.51" y="358.14" fill="#006464" font-size="5.14px" text-anchor="middle" dominant-baseline="central">10K@25°C</text><text x="270.51" y="358.14" fill="#c86482" font-size="5.14px" text-anchor="middle" dominant-baseline="central">Resistor_SMD:R_0805_2012Metric</text><polyline points="125.73,38.10 171.45,144.78" fill="none" stroke="#840000" stroke-width="0.46"/><polyline points="171.45,38.10 125.73,144.78" fill="none" stroke="#840000" stroke-width="0.46"/><text x="148.59" y="-19.05" fill="#006464" font-size="5.14px" text-anchor="middle" dominant-baseline="central">U18</text><text x="148.59" y="201.93" fill="#006464" font-size="5.14px" text-anchor="middle" dominant-baseline="central">74HC04</text><text x="148.59" y="213.36" fill="#c86482" font-size="5.14px" text-anchor="middle" dominant-baseline="central">Package_SO:TSSOP-14_4.4x5mm_P0.65mm</text><text x="53.80" y="365.76" fill="#840000" font-size="5.14px">PGND</text><polygon points="68.58,365.76 68.58,361.97 50.03,361.97 50.03,365.76 50.03,369.55 68.58,369.55 68.58,365.76" fill="none" stroke="#840000" stroke-width="0.46"/><text x="141.43" y="365.76" fill="#840000" font-size="5.14px">PGND</text><polygon points="156.21,365.76 156.21,361.97 137.66,361.97 137.66,365.76 137.66,369.55 156.21,369.55 156.21,365.76" fill="none" stroke="#840000" stroke-width="0.46"/><text x="257.10" y="76.20" fill="#840000" font-size="5.14px">DGND</text><polygon points="251.46,76.20 251.46,79.99 270.01,79.99 270.01,76.20 270.01,72.41 251.46,72.41 251.46,76.20" fill="none" stroke="#840000" stroke-width="0.46"/><text x="257.10" y="110.49" fill="#840000" font-size="5.14px">DGND</text><polygon points="251.46,110.49 251.46,114.28 270.01,114.28 270.01,110.49 270.01,106.70 251.46,106.70 251.46,110.49" fill="none" stroke="#840000" stroke-width="0.46"/><text x="257.10" y="148.59" fill="#840000" font-size="5.14px">DGND</text><polygon points="251.46,148.59 251.46,152.38 270.01,152.38 270.01,148.59 270.01,144.80 251.46,144.80 251.46,148.59" fill="none" stroke="#840000" stroke-width="0.46"/><text x="257.10" y="182.88" fill="#840000" font-size="5.14px">DGND</text><polygon points="251.46,182.88 251.46,186.67 270.01,186.67 270.01,182.88 270.01,179.09 251.46,179.09 251.46,182.88" fill="none" stroke="#840000" stroke-width="0.46"/><text x="257.10" y="217.17" fill="#840000" font-size="5.14px">DGND</text><polygon points="251.46,217.17 251.46,220.96 270.01,220.96 270.01,217.17 270.01,213.38 251.46,213.38 251.46,217.17" fill="none" stroke="#840000" stroke-width="0.46"/><text x="257.10" y="255.27" fill="#840000" font-size="5.14px">DGND</text><polygon points="251.46,255.27 251.46,259.06 270.01,259.06 270.01,255.27 270.01,251.48 251.46,251.48 251.46,255.27" fill="none" stroke="#840000" stroke-width="0.46"/><text x="103.33" y="137.16" fill="#840000" font-size="5.14px">DGND</text><polygon points="118.11,137.16 118.11,133.37 99.56,133.37 99.56,137.16 99.56,140.95 118.11,140.95 118.11,137.16" fill="none" stroke="#840000" stroke-width="0.46"/><text x="199.95" y="266.70" fill="#840000" font-size="5.14px">AGND</text><polygon points="194.31,266.70 194.31,270.49 212.86,270.49 212.86,266.70 212.86,262.91 194.31,262.91 194.31,266.70" fill="none" stroke="#840000" stroke-width="0.46"/><text x="184.71" y="137.16" fill="#840000" font-size="5.14px">3V3_STBY</text><polygon points="179.07,137.16 179.07,140.95 212.86,140.95 212.86,137.16 212.86,133.37 179.07,133.37 179.07,137.16" fill="none" stroke="#840000" stroke-width="0.46"/><text x="97.08" y="312.42" fill="#840000" font-size="5.14px">+4V</text><polygon points="91.44,312.42 91.44,316.21 106.18,316.21 106.18,312.42 106.18,308.63 91.44,308.63 91.44,312.42" fill="none" stroke="#840000" stroke-width="0.46"/><text x="276.15" y="346.71" fill="#840000" font-size="5.14px">+4V</text><polygon points="270.51,346.71 270.51,350.50 285.25,350.50 285.25,346.71 285.25,342.92 270.51,342.92 270.51,346.71" fill="none" stroke="#840000" stroke-width="0.46"/><text x="194.31" y="64.77" fill="#0f0f0f" font-size="5.14px">CCD_PWR_EN</text><text x="194.31" y="99.06" fill="#0f0f0f" font-size="5.14px">CCD_PWR_EN</text><text x="194.31" y="137.16" fill="#0f0f0f" font-size="5.14px">CCD_PWR_EN</text><text x="194.31" y="171.45" fill="#0f0f0f" font-size="5.14px">CCD_PWR_EN</text><text x="194.31" y="205.74" fill="#0f0f0f" font-size="5.14px">CCD_PWR_EN</text><text x="91.44" y="289.56" fill="#0f0f0f" font-size="5.14px">CCD_PWR_EN</text><text x="179.07" y="289.56" fill="#0f0f0f" font-size="5.14px">CCD_PWR_EN</text><text x="388.62" y="60.96" fill="#0f0f0f" font-size="5.14px">CCD_PWR_EN</text><text x="54.86" y="350.52" fill="#0f0f0f" font-size="5.14px">TEC_EN</text><text x="388.62" y="76.20" fill="#0f0f0f" font-size="5.14px">TEC_EN</text><text x="140.21" y="350.52" fill="#0f0f0f" font-size="5.14px">FAN_PWM</text><text x="388.62" y="91.44" fill="#0f0f0f" font-size="5.14px">FAN_PWM</text><text x="194.31" y="243.84" fill="#0f0f0f" font-size="5.14px">NTC_OUT</text><text x="270.51" y="369.57" fill="#0f0f0f" font-size="5.14px">NTC_OUT</text><text x="388.62" y="106.68" fill="#0f0f0f" font-size="5.14px">NTC_OUT</text><text x="228.60" y="76.20" fill="#0f0f0f" font-size="5.14px">SEQ_U3_EN</text><text x="194.31" y="87.63" fill="#0f0f0f" font-size="5.14px">SEQ_U3_EN</text><text x="388.62" y="163.83" fill="#0f0f0f" font-size="5.14px">SEQ_U3_EN</text><text x="228.60" y="110.49" fill="#0f0f0f" font-size="5.14px">SEQ_U9_EN</text><text x="194.31" y="121.92" fill="#0f0f0f" font-size="5.14px">SEQ_U9_EN</text><text x="388.62" y="224.79" fill="#0f0f0f" font-size="5.14px">SEQ_U9_EN</text><text x="228.60" y="148.59" fill="#0f0f0f" font-size="5.14px">SEQ_U4_EN</text><text x="194.31" y="160.02" fill="#0f0f0f" font-size="5.14px">SEQ_U4_EN</text><text x="388.62" y="179.07" fill="#0f0f0f" font-size="5.14px">SEQ_U4_EN</text><text x="228.60" y="182.88" fill="#0f0f0f" font-size="5.14px">SEQ_U6_EN</text><text x="194.31" y="194.31" fill="#0f0f0f" font-size="5.14px">SEQ_U6_EN</text><text x="388.62" y="209.55" fill="#0f0f0f" font-size="5.14px">SEQ_U6_EN</text><text x="228.60" y="217.17" fill="#0f0f0f" font-size="5.14px">SEQ_U5_EN</text><text x="194.31" y="228.60" fill="#0f0f0f" font-size="5.14px">SEQ_U5_EN</text><text x="388.62" y="194.31" fill="#0f0f0f" font-size="5.14px">SEQ_U5_EN</text><text x="228.60" y="255.27" fill="#0f0f0f" font-size="5.14px">SEQ_U1_EN</text><text x="179.07" y="312.42" fill="#0f0f0f" font-size="5.14px">SEQ_U1_EN</text><text x="388.62" y="148.59" fill="#0f0f0f" font-size="5.14px">SEQ_U1_EN</text><text x="114.30" y="358.14" fill="#0f0f0f" font-size="5.14px">TEC_PWR</text><text x="388.62" y="118.11" fill="#0f0f0f" font-size="5.14px">TEC_PWR</text><text x="201.93" y="358.14" fill="#0f0f0f" font-size="5.14px">FAN_GND</text><text x="388.62" y="133.35" fill="#0f0f0f" font-size="5.14px">FAN_GND</text><text x="394.26" y="60.96" fill="#725600" font-size="5.14px">CCD_PWR_EN</text><polygon points="392.43,62.87 390.52,62.87 388.62,60.96 390.52,59.05 392.43,59.05 392.43,62.87" fill="none" stroke="#725600" stroke-width="0.46"/><text x="394.26" y="76.20" fill="#725600" font-size="5.14px">TEC_EN</text><polygon points="392.43,78.11 390.52,78.11 388.62,76.20 390.52,74.29 392.43,74.29 392.43,78.11" fill="none" stroke="#725600" stroke-width="0.46"/><text x="394.26" y="91.44" fill="#725600" font-size="5.14px">FAN_PWM</text><polygon points="392.43,93.34 390.52,93.34 388.62,91.44 390.52,89.53 392.43,89.53 392.43,93.34" fill="none" stroke="#725600" stroke-width="0.46"/><text x="394.26" y="106.68" fill="#725600" font-size="5.14px">NTC_OUT</text><polygon points="388.62,108.59 390.52,108.59 392.43,106.68 390.52,104.78 388.62,104.78 388.62,108.59" fill="none" stroke="#725600" stroke-width="0.46"/><text x="394.26" y="118.11" fill="#725600" font-size="5.14px">TEC_PWR</text><polygon points="388.62,120.01 390.52,120.01 392.43,118.11 390.52,116.20 388.62,116.20 388.62,120.01" fill="none" stroke="#725600" stroke-width="0.46"/><text x="394.26" y="133.35" fill="#725600" font-size="5.14px">FAN_GND</text><polygon points="388.62,135.25 390.52,135.25 392.43,133.35 390.52,131.45 388.62,131.45 388.62,135.25" fill="none" stroke="#725600" stroke-width="0.46"/><text x="394.26" y="148.59" fill="#725600" font-size="5.14px">SEQ_U1_EN</text><polygon points="388.62,150.50 390.52,150.50 392.43,148.59 390.52,146.69 388.62,146.69 388.62,150.50" fill="none" stroke="#725600" stroke-width="0.46"/><text x="394.26" y="163.83" fill="#725600" font-size="5.14px">SEQ_U3_EN</text><polygon points="388.62,165.73 390.52,165.73 392.43,163.83 390.52,161.93 388.62,161.93 388.62,165.73" fill="none" stroke="#725600" stroke-width="0.46"/><text x="394.26" y="179.07" fill="#725600" font-size="5.14px">SEQ_U4_EN</text><polygon points="388.62,180.97 390.52,180.97 392.43,179.07 390.52,177.16 388.62,177.16 388.62,180.97" fill="none" stroke="#725600" stroke-width="0.46"/><text x="394.26" y="194.31" fill="#725600" font-size="5.14px">SEQ_U5_EN</text><polygon points="388.62,196.22 390.52,196.22 392.43,194.31 390.52,192.40 388.62,192.40 388.62,196.22" fill="none" stroke="#725600" stroke-width="0.46"/><text x="394.26" y="209.55" fill="#725600" font-size="5.14px">SEQ_U6_EN</text><polygon points="388.62,211.45 390.52,211.45 392.43,209.55 390.52,207.64 388.62,207.64 388.62,211.45" fill="none" stroke="#725600" stroke-width="0.46"/><text x="394.26" y="224.79" fill="#725600" font-size="5.14px">SEQ_U9_EN</text><polygon points="388.62,226.70 390.52,226.70 392.43,224.79 390.52,222.88 388.62,222.88 388.62,226.70" fill="none" stroke="#725600" stroke-width="0.46"/><polyline points="116.28,43.89 119.94,47.55" fill="none" stroke="#000084" stroke-width="0.46"/><polyline points="119.94,43.89 116.28,47.55" fill="none" stroke="#000084" stroke-width="0.46"/><polyline points="177.24,74.37 180.90,78.03" fill="none" stroke="#000084" stroke-width="0.46"/><polyline points="180.90,74.37 177.24,78.03" fill="none" stroke="#000084" stroke-width="0.46"/><polyline points="177.24,89.61 180.90,93.27" fill="none" stroke="#000084" stroke-width="0.46"/><polyline points="180.90,89.61 177.24,93.27" fill="none" stroke="#000084" stroke-width="0.46"/><polyline points="177.24,104.85 180.90,108.51" fill="none" stroke="#000084" stroke-width="0.46"/><polyline points="180.90,104.85 177.24,108.51" fill="none" stroke="#000084" stroke-width="0.46"/><polyline points="177.24,120.09 180.90,123.75" fill="none" stroke="#000084" stroke-width="0.46"/><polyline points="180.90,120.09 177.24,123.75" fill="none" stroke="#000084" stroke-width="0.46"/><polyline points="116.28,59.13 119.94,62.79" fill="none" stroke="#000084" stroke-width="0.46"/><polyline points="119.94,59.13 116.28,62.79" fill="none" stroke="#000084" stroke-width="0.46"/><polyline points="116.28,74.37 119.94,78.03" fill="none" stroke="#000084" stroke-width="0.46"/><polyline points="119.94,74.37 116.28,78.03" fill="none" stroke="#000084" stroke-width="0.46"/><polyline points="116.28,89.61 119.94,93.27" fill="none" stroke="#000084" stroke-width="0.46"/><polyline points="119.94,89.61 116.28,93.27" fill="none" stroke="#000084" stroke-width="0.46"/><polyline points="116.28,104.85 119.94,108.51" fill="none" stroke="#000084" stroke-width="0.46"/><polyline points="119.94,104.85 116.28,108.51" fill="none" stroke="#000084" stroke-width="0.46"/><polyline points="116.28,120.09 119.94,123.75" fill="none" stroke="#000084" stroke-width="0.46"/><polyline points="119.94,120.09 116.28,123.75" fill="none" stroke="#000084" stroke-width="0.46"/><polyline points="177.24,43.89 180.90,47.55" fill="none" stroke="#000084" stroke-width="0.46"/><polyline points="180.90,43.89 177.24,47.55" fill="none" stroke="#000084" stroke-width="0.46"/><polyline points="177.24,59.13 180.90,62.79" fill="none" stroke="#000084" stroke-width="0.46"/><polyline points="180.90,59.13 177.24,62.79" fill="none" stroke="#000084" stroke-width="0.46"/>
</svg>