<svg xmlns="http://www.w3.org/2000/svg" viewBox="-2.00 -2.00 1264.00 895.00">
<rect x="-2.00" y="-2.00" width="1264.00" height="895.00" fill="white"/>
<polygon points="0.00,0.00 1260.00,0.00 1260.00,891.00 0.00,891.00 0.00,0.00" fill="none" stroke="#840000" stroke-width="0.45"/><polygon points="30.00,30.00 1230.00,30.00 1230.00,861.00 30.00,861.00 30.00,30.00" fill="none" stroke="#840000" stroke-width="0.45"/><polygon points="36.00,36.00 1224.00,36.00 1224.00,855.00 36.00,855.00 36.00,36.00" fill="none" stroke="#840000" stroke-width="0.45"/><polyline points="180.00,30.00 180.00,36.00" fill="none" stroke="#840000" stroke-width="0.45"/><text x="105.00" y="33.00" fill="#840000" font-size="5.27px">1</text><polyline points="330.00,30.00 330.00,36.00" fill="none" stroke="#840000" stroke-width="0.45"/><text x="255.00" y="33.00" fill="#840000" font-size="5.27px">2</text><polyline points="480.00,30.00 480.00,36.00" fill="none" stroke="#840000" stroke-width="0.45"/><text x="405.00" y="33.00" fill="#840000" font-size="5.27px">3</text><polyline points="630.00,30.00 630.00,36.00" fill="none" stroke="#840000" stroke-width="0.45"/><text x="555.00" y="33.00" fill="#840000" font-size="5.27px">4</text><polyline points="780.00,30.00 780.00,36.00" fill="none" stroke="#840000" stroke-width="0.45"/><text x="705.00" y="33.00" fill="#840000" font-size="5.27px">5</text><polyline points="930.00,30.00 930.00,36.00" fill="none" stroke="#840000" stroke-width="0.45"/><text x="855.00" y="33.00" fill="#840000" font-size="5.27px">6</text><polyline points="1080.00,30.00 1080.00,36.00" fill="none" stroke="#840000" stroke-width="0.45"/><text x="1005.00" y="33.00" fill="#840000" font-size="5.27px">7</text><polyline points="180.00,861.00 180.00,855.00" fill="none" stroke="#840000" stroke-width="0.45"/><text x="105.00" y="858.00" fill="#840000" font-size="5.27px">1</text><polyline points="330.00,861.00 330.00,855.00" fill="none" stroke="#840000" stroke-width="0.45"/><text x="255.00" y="858.00" fill="#840000" font-size="5.27px">2</text><polyline points="480.00,861.00 480.00,855.00" fill="none" stroke="#840000" stroke-width="0.45"/><text x="405.00" y="858.00" fill="#840000" font-size="5.27px">3</text><polyline points="630.00,861.00 630.00,855.00" fill="none" stroke="#840000" stroke-width="0.45"/><text x="555.00" y="858.00" fill="#840000" font-size="5.27px">4</text><polyline points="780.00,861.00 780.00,855.00" fill="none" stroke="#840000" stroke-width="0.45"/><text x="705.00" y="858.00" fill="#840000" font-size="5.27px">5</text><polyline points="930.00,861.00 930.00,855.00" fill="none" stroke="#840000" stroke-width="0.45"/><text x="855.00" y="858.00" fill="#840000" font-size="5.27px">6</text><polyline points="1080.00,861.00 1080.00,855.00" fill="none" stroke="#840000" stroke-width="0.45"/><text x="1005.00" y="858.00" fill="#840000" font-size="5.27px">7</text><polyline points="30.00,180.00 36.00,180.00" fill="none" stroke="#840000" stroke-width="0.45"/><text x="33.00" y="105.00" fill="#840000" font-size="5.27px">A</text><polyline points="30.00,330.00 36.00,330.00" fill="none" stroke="#840000" stroke-width="0.45"/><text x="33.00" y="255.00" fill="#840000" font-size="5.27px">B</text><polyline points="30.00,480.00 36.00,480.00" fill="none" stroke="#840000" stroke-width="0.45"/><text x="33.00" y="405.00" fill="#840000" font-size="5.27px">C</text><polyline points="30.00,630.00 36.00,630.00" fill="none" stroke="#840000" stroke-width="0.45"/><text x="33.00" y="555.00" fill="#840000" font-size="5.27px">D</text><polyline points="30.00,780.00 36.00,780.00" fill="none" stroke="#840000" stroke-width="0.45"/><text x="33.00" y="705.00" fill="#840000" font-size="5.27px">E</text><polyline points="1230.00,180.00 1224.00,180.00" fill="none" stroke="#840000" stroke-width="0.45"/><text x="1227.00" y="105.00" fill="#840000" font-size="5.27px">A</text><polyline points="1230.00,330.00 1224.00,330.00" fill="none" stroke="#840000" stroke-width="0.45"/><text x="1227.00" y="255.00" fill="#840000" font-size="5.27px">B</text><polyline points="1230.00,480.00 1224.00,480.00" fill="none" stroke="#840000" stroke-width="0.45"/><text x="1227.00" y="405.00" fill="#840000" font-size="5.27px">C</text><polyline points="1230.00,630.00 1224.00,630.00" fill="none" stroke="#840000" stroke-width="0.45"/><text x="1227.00" y="555.00" fill="#840000" font-size="5.27px">D</text><polyline points="1230.00,780.00 1224.00,780.00" fill="none" stroke="#840000" stroke-width="0.45"/><text x="1227.00" y="705.00" fill="#840000" font-size="5.27px">E</text><polygon points="900.00,759.00 1224.00,759.00 1224.00,855.00 900.00,855.00 900.00,759.00" fill="none" stroke="#840000" stroke-width="0.45"/><polyline points="900.00,844.50 1224.00,844.50" fill="none" stroke="#840000" stroke-width="0.45"/><polyline points="900.00,835.50 1224.00,835.50" fill="none" stroke="#840000" stroke-width="0.45"/><polyline points="900.00,823.50 1224.00,823.50" fill="none" stroke="#840000" stroke-width="0.45"/><polyline points="900.00,805.50 1224.00,805.50" fill="none" stroke="#840000" stroke-width="0.45"/><polyline points="960.00,844.50 960.00,835.50" fill="none" stroke="#840000" stroke-width="0.45"/><polyline points="1152.00,855.00 1152.00,835.50" fill="none" stroke="#840000" stroke-width="0.45"/><text x="903.00" y="850.20" fill="#840000" font-size="6.08px">kicad-render</text><text x="1158.00" y="850.20" fill="#840000" font-size="6.08px">Id: 1/1</text><text x="903.00" y="841.80" fill="#840000" font-size="6.08px">Size: A3</text><text x="903.00" y="831.30" fill="#840000" font-size="8.10px">Title: CCD Carrier Board - Ccd</text><text x="903.00" y="819.60" fill="#840000" font-size="6.08px">File: ccd-sensor.kicad_sch</text><text x="903.00" y="811.50" fill="#840000" font-size="6.08px">Sheet: /</text><polyline points="279.65,146.30 291.85,146.30" fill="none" stroke="#840000" stroke-width="1.52"/><polyline points="279.65,150.88 291.85,150.88" fill="none" stroke="#840000" stroke-width="1.52"/><polyline points="85.34,115.82 97.54,115.82" fill="none" stroke="#840000" stroke-width="1.52"/><polyline points="85.34,120.40 97.54,120.40" fill="none" stroke="#840000" stroke-width="1.52"/><polyline points="85.34,161.54 97.54,161.54" fill="none" stroke="#840000" stroke-width="1.52"/><polyline points="85.34,166.12 97.54,166.12" fill="none" stroke="#840000" stroke-width="1.52"/><polyline points="85.34,207.26 97.54,207.26" fill="none" stroke="#840000" stroke-width="1.52"/><polyline points="85.34,211.84 97.54,211.84" fill="none" stroke="#840000" stroke-width="1.52"/><polygon points="87.63,-49.53 270.51,-49.53 270.51,407.67 87.63,407.67 87.63,-49.53" fill="#ffffc2" stroke="#840000" stroke-width="0.76"/><polygon points="282.70,201.93 288.80,201.93 288.80,186.69 282.70,186.69 282.70,201.93" fill="none" stroke="#840000" stroke-width="0.76"/><polygon points="282.70,232.41 288.80,232.41 288.80,217.17 282.70,217.17 282.70,232.41" fill="none" stroke="#840000" stroke-width="0.76"/><polyline points="285.75,145.54 285.75,137.16" fill="none" stroke="#a90000" stroke-width="0.46"/><polyline points="285.75,151.64 285.75,160.02" fill="none" stroke="#a90000" stroke-width="0.46"/><polyline points="91.44,115.06 91.44,106.68" fill="none" stroke="#a90000" stroke-width="0.46"/><polyline points="91.44,121.16 91.44,129.54" fill="none" stroke="#a90000" stroke-width="0.46"/><polyline points="91.44,160.78 91.44,152.40" fill="none" stroke="#a90000" stroke-width="0.46"/><polyline points="91.44,166.88 91.44,175.26" fill="none" stroke="#a90000" stroke-width="0.46"/><polyline points="91.44,206.50 91.44,198.12" fill="none" stroke="#a90000" stroke-width="0.46"/><polyline points="91.44,212.60 91.44,220.98" fill="none" stroke="#a90000" stroke-width="0.46"/><polyline points="87.63,-41.91 80.01,-41.91" fill="none" stroke="#a90000" stroke-width="0.46"/><text x="88.16" y="-41.91" fill="#a90000" font-size="5.14px" dominant-baseline="central">VSUB</text><text x="83.82" y="-41.18" fill="#a90000" font-size="5.14px" text-anchor="middle">1</text><polyline points="87.63,-26.67 80.01,-26.67" fill="none" stroke="#a90000" stroke-width="0.46"/><text x="88.16" y="-26.67" fill="#a90000" font-size="5.14px" dominant-baseline="central">VC</text><text x="83.82" y="-25.94" fill="#a90000" font-size="5.14px" text-anchor="middle">2</text><polyline points="87.63,-11.43 80.01,-11.43" fill="none" stroke="#a90000" stroke-width="0.46"/><text x="88.16" y="-11.43" fill="#a90000" font-size="5.14px" dominant-baseline="central">V2</text><text x="83.82" y="-10.70" fill="#a90000" font-size="5.14px" text-anchor="middle">3</text><polyline points="87.63,3.81 80.01,3.81" fill="none" stroke="#a90000" stroke-width="0.46"/><text x="88.16" y="3.81" fill="#a90000" font-size="5.14px" dominant-baseline="central">V1_bot</text><text x="83.82" y="4.54" fill="#a90000" font-size="5.14px" text-anchor="middle">4</text><polyline points="87.63,19.05 80.01,19.05" fill="none" stroke="#a90000" stroke-width="0.46"/><text x="88.16" y="19.05" fill="#a90000" font-size="5.14px" dominant-baseline="central">LOD_bot</text><text x="83.82" y="19.78" fill="#a90000" font-size="5.14px" text-anchor="middle">5</text><polyline points="87.63,34.29 80.01,34.29" fill="none" stroke="#a90000" stroke-width="0.46"/><text x="88.16" y="34.29" fill="#a90000" font-size="5.14px" dominant-baseline="central">VDD_a</text><text x="83.82" y="35.02" fill="#a90000" font-size="5.14px" text-anchor="middle">6</text><polyline points="87.63,49.53 80.01,49.53" fill="none" stroke="#a90000" stroke-width="0.46"/><text x="88.16" y="49.53" fill="#a90000" font-size="5.14px" dominant-baseline="central">VOUT_a</text><text x="83.82" y="50.26" fill="#a90000" font-size="5.14px" text-anchor="middle">7</text><polyline points="87.63,64.77 80.01,64.77" fill="none" stroke="#a90000" stroke-width="0.46"/><text x="88.16" y="64.77" fill="#a90000" font-size="5.14px" dominant-baseline="central">VSS_a</text><text x="83.82" y="65.50" fill="#a90000" font-size="5.14px" text-anchor="middle">8</text><polyline points="87.63,80.01 80.01,80.01" fill="none" stroke="#a90000" stroke-width="0.46"/><text x="88.16" y="80.01" fill="#a90000" font-size="5.14px" dominant-baseline="central">RD_a</text><text x="83.82" y="80.74" fill="#a90000" font-size="5.14px" text-anchor="middle">9</text><polyline points="87.63,95.25 80.01,95.25" fill="none" stroke="#a90000" stroke-width="0.46"/><text x="88.16" y="95.25" fill="#a90000" font-size="5.14px" dominant-baseline="central">RG_a</text><text x="83.82" y="95.98" fill="#a90000" font-size="5.14px" text-anchor="middle">10</text><polyline points="87.63,110.49 80.01,110.49" fill="none" stroke="#a90000" stroke-width="0.46"/><text x="88.16" y="110.49" fill="#a90000" font-size="5.14px" dominant-baseline="central">OG_a</text><text x="83.82" y="111.22" fill="#a90000" font-size="5.14px" text-anchor="middle">11</text><polyline points="87.63,125.73 80.01,125.73" fill="none" stroke="#a90000" stroke-width="0.46"/><text x="88.16" y="125.73" fill="#a90000" font-size="5.14px" dominant-baseline="central">HL_a</text><text x="83.82" y="126.46" fill="#a90000" font-size="5.14px" text-anchor="middle">12</text><polyline points="87.63,140.97 80.01,140.97" fill="none" stroke="#a90000" stroke-width="0.46"/><text x="88.16" y="140.97" fill="#a90000" font-size="5.14px" dominant-baseline="central">HLOD_bot</text><text x="83.82" y="141.70" fill="#a90000" font-size="5.14px" text-anchor="middle">13</text><polyline points="87.63,156.21 80.01,156.21" fill="none" stroke="#a90000" stroke-width="0.46"/><text x="88.16" y="156.21" fill="#a90000" font-size="5.14px" dominant-baseline="central">H2_a</text><text x="83.82" y="156.94" fill="#a90000" font-size="5.14px" text-anchor="middle">14</text><polyline points="87.63,171.45 80.01,171.45" fill="none" stroke="#a90000" stroke-width="0.46"/><text x="88.16" y="171.45" fill="#a90000" font-size="5.14px" dominant-baseline="central">H1_a</text><text x="83.82" y="172.18" fill="#a90000" font-size="5.14px" text-anchor="middle">15</text><polyline points="87.63,186.69 80.01,186.69" fill="none" stroke="#a90000" stroke-width="0.46"/><text x="88.16" y="186.69" fill="#a90000" font-size="5.14px" dominant-baseline="central">Guard_bot</text><text x="83.82" y="187.42" fill="#a90000" font-size="5.14px" text-anchor="middle">16</text><polyline points="87.63,201.93 80.01,201.93" fill="none" stroke="#a90000" stroke-width="0.46"/><text x="88.16" y="201.93" fill="#a90000" font-size="5.14px" dominant-baseline="central">H1_b</text><text x="83.82" y="202.66" fill="#a90000" font-size="5.14px" text-anchor="middle">17</text><polyline points="87.63,217.17 80.01,217.17" fill="none" stroke="#a90000" stroke-width="0.46"/><text x="88.16" y="217.17" fill="#a90000" font-size="5.14px" dominant-baseline="central">H2_b</text><text x="83.82" y="217.90" fill="#a90000" font-size="5.14px" text-anchor="middle">18</text><polyline points="87.63,232.41 80.01,232.41" fill="none" stroke="#a90000" stroke-width="0.46"/><text x="88.16" y="232.41" fill="#a90000" font-size="5.14px" dominant-baseline="central">HLOD_bot</text><text x="83.82" y="233.14" fill="#a90000" font-size="5.14px" text-anchor="middle">19</text><polyline points="87.63,247.65 80.01,247.65" fill="none" stroke="#a90000" stroke-width="0.46"/><text x="88.16" y="247.65" fill="#a90000" font-size="5.14px" dominant-baseline="central">HL_b</text><text x="83.82" y="248.38" fill="#a90000" font-size="5.14px" text-anchor="middle">20</text><polyline points="87.63,262.89 80.01,262.89" fill="none" stroke="#a90000" stroke-width="0.46"/><text x="88.16" y="262.89" fill="#a90000" font-size="5.14px" dominant-baseline="central">OG_b</text><text x="83.82" y="263.62" fill="#a90000" font-size="5.14px" text-anchor="middle">21</text><polyline points="87.63,278.13 80.01,278.13" fill="none" stroke="#a90000" stroke-width="0.46"/><text x="88.16" y="278.13" fill="#a90000" font-size="5.14px" dominant-baseline="central">RG_b</text><text x="83.82" y="278.86" fill="#a90000" font-size="5.14px" text-anchor="middle">22</text><polyline points="87.63,293.37 80.01,293.37" fill="none" stroke="#a90000" stroke-width="0.46"/><text x="88.16" y="293.37" fill="#a90000" font-size="5.14px" dominant-baseline="central">RD_b</text><text x="83.82" y="294.10" fill="#a90000" font-size="5.14px" text-anchor="middle">23</text><polyline points="87.63,308.61 80.01,308.61" fill="none" stroke="#a90000" stroke-width="0.46"/><text x="88.16" y="308.61" fill="#a90000" font-size="5.14px" dominant-baseline="central">VSS_b</text><text x="83.82" y="309.34" fill="#a90000" font-size="5.14px" text-anchor="middle">24</text><polyline points="87.63,323.85 80.01,323.85" fill="none" stroke="#a90000" stroke-width="0.46"/><text x="88.16" y="323.85" fill="#a90000" font-size="5.14px" dominant-baseline="central">VOUT_b</text><text x="83.82" y="324.58" fill="#a90000" font-size="5.14px" text-anchor="middle">25</text><polyline points="87.63,339.09 80.01,339.09" fill="none" stroke="#a90000" stroke-width="0.46"/><text x="88.16" y="339.09" fill="#a90000" font-size="5.14px" dominant-baseline="central">VDD_b</text><text x="83.82" y="339.82" fill="#a90000" font-size="5.14px" text-anchor="middle">26</text><polyline points="87.63,354.33 80.01,354.33" fill="none" stroke="#a90000" stroke-width="0.46"/><text x="88.16" y="354.33" fill="#a90000" font-size="5.14px" dominant-baseline="central">LOD_bot</text><text x="83.82" y="355.06" fill="#a90000" font-size="5.14px" text-anchor="middle">27</text><polyline points="87.63,369.57 80.01,369.57" fill="none" stroke="#a90000" stroke-width="0.46"/><text x="88.16" y="369.57" fill="#a90000" font-size="5.14px" dominant-baseline="central">V1_bot</text><text x="83.82" y="370.30" fill="#a90000" font-size="5.14px" text-anchor="middle">28</text><polyline points="87.63,384.81 80.01,384.81" fill="none" stroke="#a90000" stroke-width="0.46"/><text x="88.16" y="384.81" fill="#a90000" font-size="5.14px" dominant-baseline="central">V2</text><text x="83.82" y="385.54" fill="#a90000" font-size="5.14px" text-anchor="middle">29</text><polyline points="87.63,400.05 80.01,400.05" fill="none" stroke="#a90000" stroke-width="0.46"/><text x="88.16" y="400.05" fill="#a90000" font-size="5.14px" dominant-baseline="central">VSUB</text><text x="83.82" y="400.78" fill="#a90000" font-size="5.14px" text-anchor="middle">30</text><polyline points="270.51,-41.91 278.13,-41.91" fill="none" stroke="#a90000" stroke-width="0.46"/><text x="269.98" y="-41.91" fill="#a90000" font-size="5.14px" text-anchor="end" dominant-baseline="central">VSUB</text><text x="274.32" y="-41.18" fill="#a90000" font-size="5.14px" text-anchor="middle">31</text><polyline points="270.51,-26.67 278.13,-26.67" fill="none" stroke="#a90000" stroke-width="0.46"/><text x="269.98" y="-26.67" fill="#a90000" font-size="5.14px" text-anchor="end" dominant-baseline="central">VC</text><text x="274.32" y="-25.94" fill="#a90000" font-size="5.14px" text-anchor="middle">32</text><polyline points="270.51,-11.43 278.13,-11.43" fill="none" stroke="#a90000" stroke-width="0.46"/><text x="269.98" y="-11.43" fill="#a90000" font-size="5.14px" text-anchor="end" dominant-baseline="central">V2</text><text x="274.32" y="-10.70" fill="#a90000" font-size="5.14px" text-anchor="middle">33</text><polyline points="270.51,3.81 278.13,3.81" fill="none" stroke="#a90000" stroke-width="0.46"/><text x="269.98" y="3.81" fill="#a90000" font-size="5.14px" text-anchor="end" dominant-baseline="central">V1_top</text><text x="274.32" y="4.54" fill="#a90000" font-size="5.14px" text-anchor="middle">34</text><polyline points="270.51,19.05 278.13,19.05" fill="none" stroke="#a90000" stroke-width="0.46"/><text x="269.98" y="19.05" fill="#a90000" font-size="5.14px" text-anchor="end" dominant-baseline="central">LOD_top</text><text x="274.32" y="19.78" fill="#a90000" font-size="5.14px" text-anchor="middle">35</text><polyline points="270.51,34.29 278.13,34.29" fill="none" stroke="#a90000" stroke-width="0.46"/><text x="269.98" y="34.29" fill="#a90000" font-size="5.14px" text-anchor="end" dominant-baseline="central">VDD_d</text><text x="274.32" y="35.02" fill="#a90000" font-size="5.14px" text-anchor="middle">36</text><polyline points="270.51,49.53 278.13,49.53" fill="none" stroke="#a90000" stroke-width="0.46"/><text x="269.98" y="49.53" fill="#a90000" font-size="5.14px" text-anchor="end" dominant-baseline="central">VOUT_d</text><text x="274.32" y="50.26" fill="#a90000" font-size="5.14px" text-anchor="middle">37</text><polyline points="270.51,64.77 278.13,64.77" fill="none" stroke="#a90000" stroke-width="0.46"/><text x="269.98" y="64.77" fill="#a90000" font-size="5.14px" text-anchor="end" dominant-baseline="central">VSS_d</text><text x="274.32" y="65.50" fill="#a90000" font-size="5.14px" text-anchor="middle">38</text><polyline points="270.51,80.01 278.13,80.01" fill="none" stroke="#a90000" stroke-width="0.46"/><text x="269.98" y="80.01" fill="#a90000" font-size="5.14px" text-anchor="end" dominant-baseline="central">RD_d</text><text x="274.32" y="80.74" fill="#a90000" font-size="5.14px" text-anchor="middle">39</text><polyline points="270.51,95.25 278.13,95.25" fill="none" stroke="#a90000" stroke-width="0.46"/><text x="269.98" y="95.25" fill="#a90000" font-size="5.14px" text-anchor="end" dominant-baseline="central">RG_d</text><text x="274.32" y="95.98" fill="#a90000" font-size="5.14px" text-anchor="middle">40</text><polyline points="270.51,110.49 278.13,110.49" fill="none" stroke="#a90000" stroke-width="0.46"/><text x="269.98" y="110.49" fill="#a90000" font-size="5.14px" text-anchor="end" dominant-baseline="central">OG_d</text><text x="274.32" y="111.22" fill="#a90000" font-size="5.14px" text-anchor="middle">41</text><polyline points="270.51,125.73 278.13,125.73" fill="none" stroke="#a90000" stroke-width="0.46"/><text x="269.98" y="125.73" fill="#a90000" font-size="5.14px" text-anchor="end" dominant-baseline="central">HL_d</text><text x="274.32" y="126.46" fill="#a90000" font-size="5.14px" text-anchor="middle">42</text><polyline points="270.51,140.97 278.13,140.97" fill="none" stroke="#a90000" stroke-width="0.46"/><text x="269.98" y="140.97" fill="#a90000" font-size="5.14px" text-anchor="end" dominant-baseline="central">HLOD_top</text><text x="274.32" y="141.70" fill="#a90000" font-size="5.14px" text-anchor="middle">43</text><polyline points="270.51,156.21 278.13,156.21" fill="none" stroke="#a90000" stroke-width="0.46"/><text x="269.98" y="156.21" fill="#a90000" font-size="5.14px" text-anchor="end" dominant-baseline="central">H2_d</text><text x="274.32" y="156.94" fill="#a90000" font-size="5.14px" text-anchor="middle">44</text><polyline points="270.51,171.45 278.13,171.45" fill="none" stroke="#a90000" stroke-width="0.46"/><text x="269.98" y="171.45" fill="#a90000" font-size="5.14px" text-anchor="end" dominant-baseline="central">H1_d</text><text x="274.32" y="172.18" fill="#a90000" font-size="5.14px" text-anchor="middle">45</text><polyline points="270.51,186.69 278.13,186.69" fill="none" stroke="#a90000" stroke-width="0.46"/><text x="269.98" y="186.69" fill="#a90000" font-size="5.14px" text-anchor="end" dominant-baseline="central">Guard_top</text><text x="274.32" y="187.42" fill="#a90000" font-size="5.14px" text-anchor="middle">46</text><polyline points="270.51,201.93 278.13,201.93" fill="none" stroke="#a90000" stroke-width="0.46"/><text x="269.98" y="201.93" fill="#a90000" font-size="5.14px" text-anchor="end" dominant-baseline="central">H1_c</text><text x="274.32" y="202.66" fill="#a90000" font-size="5.14px" text-anchor="middle">47</text><polyline points="270.51,217.17 278.13,217.17" fill="none" stroke="#a90000" stroke-width="0.46"/><text x="269.98" y="217.17" fill="#a90000" font-size="5.14px" text-anchor="end" dominant-baseline="central">H2_c</text><text x="274.32" y="217.90" fill="#a90000" font-size="5.14px" text-anchor="middle">48</text><polyline points="270.51,232.41 278.13,232.41" fill="none" stroke="#a90000" stroke-width="0.46"/><text x="269.98" y="232.41" fill="#a90000" font-size="5.14px" text-anchor="end" dominant-baseline="central">HLOD_top</text><text x="274.32" y="233.14" fill="#a90000" font-size="5.14px" text-anchor="middle">49</text><polyline points="270.51,247.65 278.13,247.65" fill="none" stroke="#a90000" stroke-width="0.46"/><text x="269.98" y="247.65" fill="#a90000" font-size="5.14px" text-anchor="end" dominant-baseline="central">HL_c</text><text x="274.32" y="248.38" fill="#a90000" font-size="5.14px" text-anchor="middle">50</text><polyline points="270.51,262.89 278.13,262.89" fill="none" stroke="#a90000" stroke-width="0.46"/><text x="269.98" y="262.89" fill="#a90000" font-size="5.14px" text-anchor="end" dominant-baseline="central">OG_c</text><text x="274.32" y="263.62" fill="#a90000" font-size="5.14px" text-anchor="middle">51</text><polyline points="270.51,278.13 278.13,278.13" fill="none" stroke="#a90000" stroke-width="0.46"/><text x="269.98" y="278.13" fill="#a90000" font-size="5.14px" text-anchor="end" dominant-baseline="central">RG_c</text><text x="274.32" y="278.86" fill="#a90000" font-size="5.14px" text-anchor="middle">52</text><polyline points="270.51,293.37 278.13,293.37" fill="none" stroke="#a90000" stroke-width="0.46"/><text x="269.98" y="293.37" fill="#a90000" font-size="5.14px" text-anchor="end" dominant-baseline="central">RD_c</text><text x="274.32" y="294.10" fill="#a90000" font-size="5.14px" text-anchor="middle">53</text><polyline points="270.51,308.61 278.13,308.61" fill="none" stroke="#a90000" stroke-width="0.46"/><text x="269.98" y="308.61" fill="#a90000" font-size="5.14px" text-anchor="end" dominant-baseline="central">VSS_c</text><text x="274.32" y="309.34" fill="#a90000" font-size="5.14px" text-anchor="middle">54</text><polyline points="270.51,323.85 278.13,323.85" fill="none" stroke="#a90000" stroke-width="0.46"/><text x="269.98" y="323.85" fill="#a90000" font-size="5.14px" text-anchor="end" dominant-baseline="central">VOUT_c</text><text x="274.32" y="324.58" fill="#a90000" font-size="5.14px" text-anchor="middle">55</text><polyline points="270.51,339.09 278.13,339.09" fill="none" stroke="#a90000" stroke-width="0.46"/><text x="269.98" y="339.09" fill="#a90000" font-size="5.14px" text-anchor="end" dominant-baseline="central">VDD_c</text><text x="274.32" y="339.82" fill="#a90000" font-size="5.14px" text-anchor="middle">56</text><polyline points="270.51,354.33 278.13,354.33" fill="none" stroke="#a90000" stroke-width="0.46"/><text x="269.98" y="354.33" fill="#a90000" font-size="5.14px" text-anchor="end" dominant-baseline="central">LOD_top</text><text x="274.32" y="355.06" fill="#a90000" font-size="5.14px" text-anchor="middle">57</text><polyline points="270.51,369.57 278.13,369.57" fill="none" stroke="#a90000" stroke-width="0.46"/><text x="269.98" y="369.57" fill="#a90000" font-size="5.14px" text-anchor="end" dominant-baseline="central">V1_top</text><text x="274.32" y="370.30" fill="#a90000" font-size="5.14px" text-anchor="middle">58</text><polyline points="270.51,384.81 278.13,384.81" fill="none" stroke="#a90000" stroke-width="0.46"/><text x="269.98" y="384.81" fill="#a90000" font-size="5.14px" text-anchor="end" dominant-baseline="central">V2</text><text x="274.32" y="385.54" fill="#a90000" font-size="5.14px" text-anchor="middle">59</text><polyline points="270.51,400.05 278.13,400.05" fill="none" stroke="#a90000" stroke-width="0.46"/><text x="269.98" y="400.05" fill="#a90000" font-size="5.14px" text-anchor="end" dominant-baseline="central">VSUB</text><text x="274.32" y="400.78" fill="#a90000" font-size="5.14px" text-anchor="middle">60</text><polyline points="285.75,186.69 285.75,182.88" fill="none" stroke="#a90000" stroke-width="0.46"/><polyline points="285.75,201.93 285.75,205.74" fill="none" stroke="#a90000" stroke-width="0.46"/><polyline points="285.75,217.17 285.75,213.36" fill="none" stroke="#a90000" stroke-width="0.46"/><polyline points="285.75,232.41 285.75,236.22" fill="none" stroke="#a90000" stroke-width="0.46"/><text x="285.75" y="148.59" fill="#006464" font-size="5.14px" text-anchor="middle" dominant-baseline="central">C10</text><text x="285.75" y="148.59" fill="#006464" font-size="5.14px" text-anchor="middle" dominant-baseline="central">100nF</text><text x="285.75" y="148.59" fill="#c86482" font-size="5.14px" text-anchor="middle" dominant-baseline="central">Capacitor_SMD:C_0805_2012Metric</text><text x="91.44" y="118.11" fill="#006464" font-size="5.14px" text-anchor="middle" dominant-baseline="central">C16</text><text x="91.44" y="118.11" fill="#006464" font-size="5.14px" text-anchor="middle" dominant-baseline="central">100nF</text><text x="91.44" y="118.11" fill="#c86482" font-size="5.14px" text-anchor="middle" dominant-baseline="central">Capacitor_SMD:C_0805_2012Metric</text><text x="91.44" y="163.83" fill="#006464" font-size="5.14px" text-anchor="middle" dominant-baseline="central">C17</text><text x="91.44" y="163.83" fill="#006464" font-size="5.14px" text-anchor="middle" dominant-baseline="central">100nF</text><text x="91.44" y="163.83" fill="#c86482" font-size="5.14px" text-anchor="middle" dominant-baseline="central">Capacitor_SMD:C_0805_2012Metric</text><text x="91.44" y="209.55" fill="#006464" font-size="5.14px" text-anchor="middle" dominant-baseline="central">C18</text><text x="91.44" y="209.55" fill="#006464" font-size="5.14px" text-anchor="middle" dominant-baseline="central">100nF</text><text x="91.44" y="209.55" fill="#c86482" font-size="5.14px" text-anchor="middle" dominant-baseline="central">Capacitor_SMD:C_0805_2012Metric</text><text x="179.07" y="-281.94" fill="#006464" font-size="5.14px" text-anchor="middle" dominant-baseline="central">CCD1</text><text x="179.07" y="640.08" fill="#006464" font-size="5.14px" text-anchor="middle" dominant-baseline="central">KAF-09001</text><text x="179.07" y="651.51" fill="#c86482" font-size="5.14px" text-anchor="middle" dominant-baseline="central">Socket:DIP_Socket-60_W7.62mm</text><text x="285.75" y="194.31" fill="#006464" font-size="5.14px" text-anchor="middle" dominant-baseline="central">R11</text><text x="285.75" y="194.31" fill="#006464" font-size="5.14px" text-anchor="middle" dominant-baseline="central">7.5k</text><text x="285.75" y="194.31" fill="#c86482" font-size="5.14px" text-anchor="middle" dominant-baseline="central">Resistor_SMD:R_0805_2012Metric</text><text x="285.75" y="224.79" fill="#006464" font-size="5.14px" text-anchor="middle" dominant-baseline="central">R12</text><text x="285.75" y="224.79" fill="#006464" font-size="5.14px" text-anchor="middle" dominant-baseline="central">10k</text><text x="285.75" y="224.79" fill="#c86482" font-size="5.14px" text-anchor="middle" dominant-baseline="central">Resistor_SMD:R_0805_2012Metric</text><text x="291.39" y="160.02" fill="#840000" font-size="5.14px">AGND</text><polygon points="285.75,160.02 285.75,163.81 304.30,163.81 304.30,160.02 304.30,156.23 285.75,156.23 285.75,160.02" fill="none" stroke="#840000" stroke-width="0.46"/><text x="97.08" y="129.54" fill="#840000" font-size="5.14px">AGND</text><polygon points="91.44,129.54 91.44,133.33 109.99,133.33 109.99,129.54 109.99,125.75 91.44,125.75 91.44,129.54" fill="none" stroke="#840000" stroke-width="0.46"/><text x="97.08" y="175.26" fill="#840000" font-size="5.14px">AGND</text><polygon points="91.44,175.26 91.44,179.05 109.99,179.05 109.99,175.26 109.99,171.47 91.44,171.47 91.44,175.26" fill="none" stroke="#840000" stroke-width="0.46"/><text x="97.08" y="220.98" fill="#840000" font-size="5.14px">AGND</text><polygon points="91.44,220.98 91.44,224.77 109.99,224.77 109.99,220.98 109.99,217.19 91.44,217.19 91.44,220.98" fill="none" stroke="#840000" stroke-width="0.46"/><text x="65.23" y="-41.91" fill="#840000" font-size="5.14px">AGND</text><polygon points="80.01,-41.91 80.01,-45.70 61.46,-45.70 61.46,-41.91 61.46,-38.12 80.01,-38.12 80.01,-41.91" fill="none" stroke="#840000" stroke-width="0.46"/><text x="65.23" y="110.49" fill="#840000" font-size="5.14px">AGND</text><polygon points="80.01,110.49 80.01,106.70 61.46,106.70 61.46,110.49 61.46,114.28 80.01,114.28 80.01,110.49" fill="none" stroke="#840000" stroke-width="0.46"/><text x="65.23" y="262.89" fill="#840000" font-size="5.14px">AGND</text><polygon points="80.01,262.89 80.01,259.10 61.46,259.10 61.46,262.89 61.46,266.68 80.01,266.68 80.01,262.89" fill="none" stroke="#840000" stroke-width="0.46"/><text x="65.23" y="400.05" fill="#840000" font-size="5.14px">AGND</text><polygon points="80.01,400.05 80.01,396.26 61.46,396.26 61.46,400.05 61.46,403.84 80.01,403.84 80.01,400.05" fill="none" stroke="#840000" stroke-width="0.46"/><text x="283.77" y="-41.91" fill="#840000" font-size="5.14px">AGND</text><polygon points="278.13,-41.91 278.13,-38.12 296.68,-38.12 296.68,-41.91 296.68,-45.70 278.13,-45.70 278.13,-41.91" fill="none" stroke="#840000" stroke-width="0.46"/><text x="283.77" y="110.49" fill="#840000" font-size="5.14px">AGND</text><polygon points="278.13,110.49 278.13,114.28 296.68,114.28 296.68,110.49 296.68,106.70 278.13,106.70 278.13,110.49" fill="none" stroke="#840000" stroke-width="0.46"/><text x="283.77" y="262.89" fill="#840000" font-size="5.14px">AGND</text><polygon points="278.13,262.89 278.13,266.68 296.68,266.68 296.68,262.89 296.68,259.10 278.13,259.10 278.13,262.89" fill="none" stroke="#840000" stroke-width="0.46"/><text x="283.77" y="400.05" fill="#840000" font-size="5.14px">AGND</text><polygon points="278.13,400.05 278.13,403.84 296.68,403.84 296.68,400.05 296.68,396.26 278.13,396.26 278.13,400.05" fill="none" stroke="#840000" stroke-width="0.46"/><text x="291.39" y="236.22" fill="#840000" font-size="5.14px">AGND</text><polygon points="285.75,236.22 285.75,240.01 304.30,240.01 304.30,236.22 304.30,232.43 285.75,232.43 285.75,236.22" fill="none" stroke="#840000" stroke-width="0.46"/><text x="97.08" y="106.68" fill="#840000" font-size="5.14px">+15V</text><polygon points="91.44,106.68 91.44,110.47 109.99,110.47 109.99,106.68 109.99,102.89 91.44,102.89 91.44,106.68" fill="none" stroke="#840000" stroke-width="0.46"/><text x="65.23" y="339.09" fill="#840000" font-size="5.14px">+15V</text><polygon points="80.01,339.09 80.01,335.30 61.46,335.30 61.46,339.09 61.46,342.88 80.01,342.88 80.01,339.09" fill="none" stroke="#840000" stroke-width="0.46"/><text x="283.77" y="34.29" fill="#840000" font-size="5.14px">+15V</text><polygon points="278.13,34.29 278.13,38.08 296.68,38.08 296.68,34.29 296.68,30.50 278.13,30.50 278.13,34.29" fill="none" stroke="#840000" stroke-width="0.46"/><text x="283.77" y="339.09" fill="#840000" font-size="5.14px">+15V</text><polygon points="278.13,339.09 278.13,342.88 296.68,342.88 296.68,339.09 296.68,335.30 278.13,335.30 278.13,339.09" fill="none" stroke="#840000" stroke-width="0.46"/><text x="65.23" y="34.29" fill="#840000" font-size="5.14px">+15V</text><polygon points="80.01,34.29 80.01,30.50 61.46,30.50 61.46,34.29 61.46,38.08 80.01,38.08 80.01,34.29" fill="none" stroke="#840000" stroke-width="0.46"/><text x="97.08" y="198.12" fill="#840000" font-size="5.14px">+13V</text><polygon points="91.44,198.12 91.44,201.91 109.99,201.91 109.99,198.12 109.99,194.33 91.44,194.33 91.44,198.12" fill="none" stroke="#840000" stroke-width="0.46"/><text x="65.23" y="293.37" fill="#840000" font-size="5.14px">+13V</text><polygon points="80.01,293.37 80.01,289.58 61.46,289.58 61.46,293.37 61.46,297.16 80.01,297.16 80.01,293.37" fill="none" stroke="#840000" stroke-width="0.46"/><text x="283.77" y="80.01" fill="#840000" font-size="5.14px">+13V</text><polygon points="278.13,80.01 278.13,83.80 296.68,83.80 296.68,80.01 296.68,76.22 278.13,76.22 278.13,80.01" fill="none" stroke="#840000" stroke-width="0.46"/><text x="283.77" y="293.37" fill="#840000" font-size="5.14px">+13V</text><polygon points="278.13,293.37 278.13,297.16 296.68,297.16 296.68,293.37 296.68,289.58 278.13,289.58 278.13,293.37" fill="none" stroke="#840000" stroke-width="0.46"/><text x="65.23" y="80.01" fill="#840000" font-size="5.14px">+13V</text><polygon points="80.01,80.01 80.01,76.22 61.46,76.22 61.46,80.01 61.46,83.80 80.01,83.80 80.01,80.01" fill="none" stroke="#840000" stroke-width="0.46"/><text x="65.23" y="140.97" fill="#840000" font-size="5.14px">+12V</text><polygon points="80.01,140.97 80.01,137.18 61.46,137.18 61.46,140.97 61.46,144.76 80.01,144.76 80.01,140.97" fill="none" stroke="#840000" stroke-width="0.46"/><text x="65.23" y="232.41" fill="#840000" font-size="5.14px">+12V</text><polygon points="80.01,232.41 80.01,228.62 61.46,228.62 61.46,232.41 61.46,236.20 80.01,236.20 80.01,232.41" fill="none" stroke="#840000" stroke-width="0.46"/><text x="283.77" y="140.97" fill="#840000" font-size="5.14px">+12V</text><polygon points="278.13,140.97 278.13,144.76 296.68,144.76 296.68,140.97 296.68,137.18 278.13,137.18 278.13,140.97" fill="none" stroke="#840000" stroke-width="0.46"/><text x="283.77" y="232.41" fill="#840000" font-size="5.14px">+12V</text><polygon points="278.13,232.41 278.13,236.20 296.68,236.20 296.68,232.41 296.68,228.62 278.13,228.62 278.13,232.41" fill="none" stroke="#840000" stroke-width="0.46"/><text x="67.51" y="186.69" fill="#840000" font-size="5.14px">+9V</text><polygon points="80.01,186.69 80.01,182.90 65.27,182.90 65.27,186.69 65.27,190.48 80.01,190.48 80.01,186.69" fill="none" stroke="#840000" stroke-width="0.46"/><text x="67.51" y="354.33" fill="#840000" font-size="5.14px">+9V</text><polygon points="80.01,354.33 80.01,350.54 65.27,350.54 65.27,354.33 65.27,358.12 80.01,358.12 80.01,354.33" fill="none" stroke="#840000" stroke-width="0.46"/><text x="283.77" y="19.05" fill="#840000" font-size="5.14px">+9V</text><polygon points="278.13,19.05 278.13,22.84 292.87,22.84 292.87,19.05 292.87,15.26 278.13,15.26 278.13,19.05" fill="none" stroke="#840000" stroke-width="0.46"/><text x="283.77" y="186.69" fill="#840000" font-size="5.14px">+9V</text><polygon points="278.13,186.69 278.13,190.48 292.87,190.48 292.87,186.69 292.87,182.90 278.13,182.90 278.13,186.69" fill="none" stroke="#840000" stroke-width="0.46"/><text x="67.51" y="19.05" fill="#840000" font-size="5.14px">+9V</text><polygon points="80.01,19.05 80.01,15.26 65.27,15.26 65.27,19.05 65.27,22.84 80.01,22.84 80.01,19.05" fill="none" stroke="#840000" stroke-width="0.46"/><text x="283.77" y="354.33" fill="#840000" font-size="5.14px">+9V</text><polygon points="278.13,354.33 278.13,358.12 292.87,358.12 292.87,354.33 292.87,350.54 278.13,350.54 278.13,354.33" fill="none" stroke="#840000" stroke-width="0.46"/><text x="97.08" y="152.40" fill="#840000" font-size="5.14px">+2V</text><polygon points="91.44,152.40 91.44,156.19 106.18,156.19 106.18,152.40 106.18,148.61 91.44,148.61 91.44,152.40" fill="none" stroke="#840000" stroke-width="0.46"/><text x="67.51" y="308.61" fill="#840000" font-size="5.14px">+2V</text><polygon points="80.01,308.61 80.01,304.82 65.27,304.82 65.27,308.61 65.27,312.40 80.01,312.40 80.01,308.61" fill="none" stroke="#840000" stroke-width="0.46"/><text x="283.77" y="64.77" fill="#840000" font-size="5.14px">+2V</text><polygon points="278.13,64.77 278.13,68.56 292.87,68.56 292.87,64.77 292.87,60.98 278.13,60.98 278.13,64.77" fill="none" stroke="#840000" stroke-width="0.46"/><text x="283.77" y="308.61" fill="#840000" font-size="5.14px">+2V</text><polygon points="278.13,308.61 278.13,312.40 292.87,312.40 292.87,308.61 292.87,304.82 278.13,304.82 278.13,308.61" fill="none" stroke="#840000" stroke-width="0.46"/><text x="67.51" y="64.77" fill="#840000" font-size="5.14px">+2V</text><polygon points="80.01,64.77 80.01,60.98 65.27,60.98 65.27,64.77 65.27,68.56 80.01,68.56 80.01,64.77" fill="none" stroke="#840000" stroke-width="0.46"/><text x="291.39" y="182.88" fill="#840000" font-size="5.14px">-4V</text><polygon points="285.75,182.88 285.75,186.67 300.49,186.67 300.49,182.88 300.49,179.09 285.75,179.09 285.75,182.88" fill="none" stroke="#840000" stroke-width="0.46"/><text x="278.13" y="3.81" fill="#0f0f0f" font-size="5.14px">V1_top_out</text><text x="278.13" y="369.57" fill="#0f0f0f" font-size="5.14px">V1_top_out</text><text x="388.62" y="60.96" fill="#0f0f0f" font-size="5.14px">V1_top_out</text><text x="57.15" y="369.57" fill="#0f0f0f" font-size="5.14px">V1_bot_out</text><text x="57.15" y="3.81" fill="#0f0f0f" font-size="5.14px">V1_bot_out</text><text x="388.62" y="76.20" fill="#0f0f0f" font-size="5.14px">V1_bot_out</text><text x="66.29" y="384.81" fill="#0f0f0f" font-size="5.14px">V2_out</text><text x="66.29" y="-11.43" fill="#0f0f0f" font-size="5.14px">V2_out</text><text x="278.13" y="-11.43" fill="#0f0f0f" font-size="5.14px">V2_out</text><text x="278.13" y="384.81" fill="#0f0f0f" font-size="5.14px">V2_out</text><text x="388.62" y="91.44" fill="#0f0f0f" font-size="5.14px">V2_out</text><text x="57.15" y="171.45" fill="#0f0f0f" font-size="5.14px">H1_top_out</text><text x="278.13" y="171.45" fill="#0f0f0f" font-size="5.14px">H1_top_out</text><text x="388.62" y="106.68" fill="#0f0f0f" font-size="5.14px">H1_top_out</text><text x="57.15" y="156.21" fill="#0f0f0f" font-size="5.14px">H2_top_out</text><text x="278.13" y="156.21" fill="#0f0f0f" font-size="5.14px">H2_top_out</text><text x="388.62" y="118.11" fill="#0f0f0f" font-size="5.14px">H2_top_out</text><text x="57.15" y="201.93" fill="#0f0f0f" font-size="5.14px">H1_bot_out</text><text x="278.13" y="201.93" fill="#0f0f0f" font-size="5.14px">H1_bot_out</text><text x="388.62" y="133.35" fill="#0f0f0f" font-size="5.14px">H1_bot_out</text><text x="57.15" y="217.17" fill="#0f0f0f" font-size="5.14px">H2_bot_out</text><text x="278.13" y="217.17" fill="#0f0f0f" font-size="5.14px">H2_bot_out</text><text x="388.62" y="148.59" fill="#0f0f0f" font-size="5.14px">H2_bot_out</text><text x="57.15" y="95.25" fill="#0f0f0f" font-size="5.14px">RG_top_out</text><text x="278.13" y="95.25" fill="#0f0f0f" font-size="5.14px">RG_top_out</text><text x="388.62" y="163.83" fill="#0f0f0f" font-size="5.14px">RG_top_out</text><text x="57.15" y="278.13" fill="#0f0f0f" font-size="5.14px">RG_bot_out</text><text x="278.13" y="278.13" fill="#0f0f0f" font-size="5.14px">RG_bot_out</text><text x="388.62" y="179.07" fill="#0f0f0f" font-size="5.14px">RG_bot_out</text><text x="64.01" y="125.73" fill="#0f0f0f" font-size="5.14px">H1L_out</text><text x="64.01" y="247.65" fill="#0f0f0f" font-size="5.14px">H1L_out</text><text x="278.13" y="125.73" fill="#0f0f0f" font-size="5.14px">H1L_out</text><text x="278.13" y="247.65" fill="#0f0f0f" font-size="5.14px">H1L_out</text><text x="388.62" y="194.31" fill="#0f0f0f" font-size="5.14px">H1L_out</text><text x="66.29" y="49.53" fill="#0f0f0f" font-size="5.14px">VOUT_a</text><text x="388.62" y="209.55" fill="#0f0f0f" font-size="5.14px">VOUT_a</text><text x="66.29" y="323.85" fill="#0f0f0f" font-size="5.14px">VOUT_b</text><text x="388.62" y="224.79" fill="#0f0f0f" font-size="5.14px">VOUT_b</text><text x="278.13" y="323.85" fill="#0f0f0f" font-size="5.14px">VOUT_c</text><text x="388.62" y="240.03" fill="#0f0f0f" font-size="5.14px">VOUT_c</text><text x="278.13" y="49.53" fill="#0f0f0f" font-size="5.14px">VOUT_d</text><text x="388.62" y="255.27" fill="#0f0f0f" font-size="5.14px">VOUT_d</text><text x="285.75" y="137.16" fill="#0f0f0f" font-size="5.14px">VC_DIV</text><text x="66.29" y="-26.67" fill="#0f0f0f" font-size="5.14px">VC_DIV</text><text x="278.13" y="-26.67" fill="#0f0f0f" font-size="5.14px">VC_DIV</text><text x="285.75" y="205.74" fill="#0f0f0f" font-size="5.14px">VC_DIV</text><text x="285.75" y="213.36" fill="#0f0f0f" font-size="5.14px">VC_DIV</text><text x="394.26" y="60.96" fill="#725600" font-size="5.14px">V1_top_out</text><polygon points="392.43,62.87 390.52,62.87 388.62,60.96 390.52,59.05 392.43,59.05 392.43,62.87" fill="none" stroke="#725600" stroke-width="0.46"/><text x="394.26" y="76.20" fill="#725600" font-size="5.14px">V1_bot_out</text><polygon points="392.43,78.11 390.52,78.11 388.62,76.20 390.52,74.29 392.43,74.29 392.43,78.11" fill="none" stroke="#725600" stroke-width="0.46"/><text x="394.26" y="91.44" fill="#725600" font-size="5.14px">V2_out</text><polygon points="392.43,93.34 390.52,93.34 388.62,91.44 390.52,89.53 392.43,89.53 392.43,93.34" fill="none" stroke="#725600" stroke-width="0.46"/><text x="394.26" y="106.68" fill="#725600" font-size="5.14px">H1_top_out</text><polygon points="392.43,108.59 390.52,108.59 388.62,106.68 390.52,104.78 392.43,104.78 392.43,108.59" fill="none" stroke="#725600" stroke-width="0.46"/><text x="394.26" y="118.11" fill="#725600" font-size="5.14px">H2_top_out</text><polygon points="392.43,120.01 390.52,120.01 388.62,118.11 390.52,116.20 392.43,116.20 392.43,120.01" fill="none" stroke="#725600" stroke-width="0.46"/><text x="394.26" y="133.35" fill="#725600" font-size="5.14px">H1_bot_out</text><polygon points="392.43,135.25 390.52,135.25 388.62,133.35 390.52,131.45 392.43,131.45 392.43,135.25" fill="none" stroke="#725600" stroke-width="0.46"/><text x="394.26" y="148.59" fill="#725600" font-size="5.14px">H2_bot_out</text><polygon points="392.43,150.50 390.52,150.50 388.62,148.59 390.52,146.69 392.43,146.69 392.43,150.50" fill="none" stroke="#725600" stroke-width="0.46"/><text x="394.26" y="163.83" fill="#725600" font-size="5.14px">RG_top_out</text><polygon points="392.43,165.73 390.52,165.73 388.62,163.83 390.52,161.93 392.43,161.93 392.43,165.73" fill="none" stroke="#725600" stroke-width="0.46"/><text x="394.26" y="179.07" fill="#725600" font-size="5.14px">RG_bot_out</text><polygon points="392.43,180.97 390.52,180.97 388.62,179.07 390.52,177.16 392.43,177.16 392.43,180.97" fill="none" stroke="#725600" stroke-width="0.46"/><text x="394.26" y="194.31" fill="#725600" font-size="5.14px">H1L_out</text><polygon points="392.43,196.22 390.52,196.22 388.62,194.31 390.52,192.40 392.43,192.40 392.43,196.22" fill="none" stroke="#725600" stroke-width="0.46"/><text x="394.26" y="209.55" fill="#725600" font-size="5.14px">VOUT_a</text><polygon points="388.62,211.45 390.52,211.45 392.43,209.55 390.52,207.64 388.62,207.64 388.62,211.45" fill="none" stroke="#725600" stroke-width="0.46"/><text x="394.26" y="224.79" fill="#725600" font-size="5.14px">VOUT_b</text><polygon points="388.62,226.70 390.52,226.70 392.43,224.79 390.52,222.88 388.62,222.88 388.62,226.70" fill="none" stroke="#725600" stroke-width="0.46"/><text x="394.26" y="240.03" fill="#725600" font-size="5.14px">VOUT_c</text><polygon points="388.62,241.94 390.52,241.94 392.43,240.03 390.52,238.12 388.62,238.12 388.62,241.94" fill="none" stroke="#725600" stroke-width="0.46"/><text x="394.26" y="255.27" fill="#725600" font-size="5.14px">VOUT_d</text><polygon points="388.62,257.18 390.52,257.18 392.43,255.27 390.52,253.37 388.62,253.37 388.62,257.18" fill="none" stroke="#725600" stroke-width="0.46"/>
</svg>