<svg xmlns="http://www.w3.org/2000/svg" viewBox="-2.00 -2.00 1264.00 895.00">
<rect x="-2.00" y="-2.00" width="1264.00" height="895.00" fill="white"/>
<polygon points="0.00,0.00 1260.00,0.00 1260.00,891.00 0.00,891.00 0.00,0.00" fill="none" stroke="#840000" stroke-width="0.45"/><polygon points="30.00,30.00 1230.00,30.00 1230.00,861.00 30.00,861.00 30.00,30.00" fill="none" stroke="#840000" stroke-width="0.45"/><polygon points="36.00,36.00 1224.00,36.00 1224.00,855.00 36.00,855.00 36.00,36.00" fill="none" stroke="#840000" stroke-width="0.45"/><polyline points="180.00,30.00 180.00,36.00" fill="none" stroke="#840000" stroke-width="0.45"/><text x="105.00" y="33.00" fill="#840000" font-size="5.27px">1</text><polyline points="330.00,30.00 330.00,36.00" fill="none" stroke="#840000" stroke-width="0.45"/><text x="255.00" y="33.00" fill="#840000" font-size="5.27px">2</text><polyline points="480.00,30.00 480.00,36.00" fill="none" stroke="#840000" stroke-width="0.45"/><text x="405.00" y="33.00" fill="#840000" font-size="5.27px">3</text><polyline points="630.00,30.00 630.00,36.00" fill="none" stroke="#840000" stroke-width="0.45"/><text x="555.00" y="33.00" fill="#840000" font-size="5.27px">4</text><polyline points="780.00,30.00 780.00,36.00" fill="none" stroke="#840000" stroke-width="0.45"/><text x="705.00" y="33.00" fill="#840000" font-size="5.27px">5</text><polyline points="930.00,30.00 930.00,36.00" fill="none" stroke="#840000" stroke-width="0.45"/><text x="855.00" y="33.00" fill="#840000" font-size="5.27px">6</text><polyline points="1080.00,30.00 1080.00,36.00" fill="none" stroke="#840000" stroke-width="0.45"/><text x="1005.00" y="33.00" fill="#840000" font-size="5.27px">7</text><polyline points="180.00,861.00 180.00,855.00" fill="none" stroke="#840000" stroke-width="0.45"/><text x="105.00" y="858.00" fill="#840000" font-size="5.27px">1</text><polyline points="330.00,861.00 330.00,855.00" fill="none" stroke="#840000" stroke-width="0.45"/><text x="255.00" y="858.00" fill="#840000" font-size="5.27px">2</text><polyline points="480.00,861.00 480.00,855.00" fill="none" stroke="#840000" stroke-width="0.45"/><text x="405.00" y="858.00" fill="#840000" font-size="5.27px">3</text><polyline points="630.00,861.00 630.00,855.00" fill="none" stroke="#840000" stroke-width="0.45"/><text x="555.00" y="858.00" fill="#840000" font-size="5.27px">4</text><polyline points="780.00,861.00 780.00,855.00" fill="none" stroke="#840000" stroke-width="0.45"/><text x="705.00" y="858.00" fill="#840000" font-size="5.27px">5</text><polyline points="930.00,861.00 930.00,855.00" fill="none" stroke="#840000" stroke-width="0.45"/><text x="855.00" y="858.00" fill="#840000" font-size="5.27px">6</text><polyline points="1080.00,861.00 1080.00,855.00" fill="none" stroke="#840000" stroke-width="0.45"/><text x="1005.00" y="858.00" fill="#840000" font-size="5.27px">7</text><polyline points="30.00,180.00 36.00,180.00" fill="none" stroke="#840000" stroke-width="0.45"/><text x="33.00" y="105.00" fill="#840000" font-size="5.27px">A</text><polyline points="30.00,330.00 36.00,330.00" fill="none" stroke="#840000" stroke-width="0.45"/><text x="33.00" y="255.00" fill="#840000" font-size="5.27px">B</text><polyline points="30.00,480.00 36.00,480.00" fill="none" stroke="#840000" stroke-width="0.45"/><text x="33.00" y="405.00" fill="#840000" font-size="5.27px">C</text><polyline points="30.00,630.00 36.00,630.00" fill="none" stroke="#840000" stroke-width="0.45"/><text x="33.00" y="555.00" fill="#840000" font-size="5.27px">D</text><polyline points="30.00,780.00 36.00,780.00" fill="none" stroke="#840000" stroke-width="0.45"/><text x="33.00" y="705.00" fill="#840000" font-size="5.27px">E</text><polyline points="1230.00,180.00 1224.00,180.00" fill="none" stroke="#840000" stroke-width="0.45"/><text x="1227.00" y="105.00" fill="#840000" font-size="5.27px">A</text><polyline points="1230.00,330.00 1224.00,330.00" fill="none" stroke="#840000" stroke-width="0.45"/><text x="1227.00" y="255.00" fill="#840000" font-size="5.27px">B</text><polyline points="1230.00,480.00 1224.00,480.00" fill="none" stroke="#840000" stroke-width="0.45"/><text x="1227.00" y="405.00" fill="#840000" font-size="5.27px">C</text><polyline points="1230.00,630.00 1224.00,630.00" fill="none" stroke="#840000" stroke-width="0.45"/><text x="1227.00" y="555.00" fill="#840000" font-size="5.27px">D</text><polyline points="1230.00,780.00 1224.00,780.00" fill="none" stroke="#840000" stroke-width="0.45"/><text x="1227.00" y="705.00" fill="#840000" font-size="5.27px">E</text><polygon points="900.00,759.00 1224.00,759.00 1224.00,855.00 900.00,855.00 900.00,759.00" fill="none" stroke="#840000" stroke-width="0.45"/><polyline points="900.00,844.50 1224.00,844.50" fill="none" stroke="#840000" stroke-width="0.45"/><polyline points="900.00,835.50 1224.00,835.50" fill="none" stroke="#840000" stroke-width="0.45"/><polyline points="900.00,823.50 1224.00,823.50" fill="none" stroke="#840000" stroke-width="0.45"/><polyline points="900.00,805.50 1224.00,805.50" fill="none" stroke="#840000" stroke-width="0.45"/><polyline points="960.00,844.50 960.00,835.50" fill="none" stroke="#840000" stroke-width="0.45"/><polyline points="1152.00,855.00 1152.00,835.50" fill="none" stroke="#840000" stroke-width="0.45"/><text x="903.00" y="850.20" fill="#840000" font-size="6.08px">kicad-render</text><text x="1158.00" y="850.20" fill="#840000" font-size="6.08px">Id: 1/1</text><text x="903.00" y="841.80" fill="#840000" font-size="6.08px">Size: A3</text><text x="903.00" y="831.30" fill="#840000" font-size="8.10px">Title: CCD Carrier Board - Main</text><text x="903.00" y="819.60" fill="#840000" font-size="6.08px">File: ccd-main.kicad_sch</text><text x="903.00" y="811.50" fill="#840000" font-size="6.08px">Sheet: /</text><polygon points="76.20,76.20 342.90,76.20 342.90,266.70 76.20,266.70 76.20,76.20" fill="#729fcf" stroke="#840000" stroke-width="0.46"/><text x="0.00" y="0.00" fill="#000000" font-size="5.14px" text-anchor="middle" dominant-baseline="auto">Power Supply</text><text x="0.00" y="0.00" fill="#000000" font-size="5.14px" text-anchor="middle" dominant-baseline="auto">ccd-power.kicad_sch</text><polygon points="419.10,76.20 685.80,76.20 685.80,243.84 419.10,243.84 419.10,76.20" fill="#729fcf" stroke="#840000" stroke-width="0.46"/><text x="0.00" y="0.00" fill="#000000" font-size="5.14px" text-anchor="middle" dominant-baseline="auto">Clock Drivers</text><text x="0.00" y="0.00" fill="#000000" font-size="5.14px" text-anchor="middle" dominant-baseline="auto">ccd-clock.kicad_sch</text><polygon points="781.05,76.20 971.55,76.20 971.55,323.85 781.05,323.85 781.05,76.20" fill="#729fcf" stroke="#840000" stroke-width="0.46"/><text x="0.00" y="0.00" fill="#000000" font-size="5.14px" text-anchor="middle" dominant-baseline="auto">CCD Sensor</text><text x="0.00" y="0.00" fill="#000000" font-size="5.14px" text-anchor="middle" dominant-baseline="auto">ccd-sensor.kicad_sch</text><polygon points="419.10,304.80 609.60,304.80 609.60,441.96 419.10,441.96 419.10,304.80" fill="#729fcf" stroke="#840000" stroke-width="0.46"/><text x="0.00" y="0.00" fill="#000000" font-size="5.14px" text-anchor="middle" dominant-baseline="auto">Control</text><text x="0.00" y="0.00" fill="#000000" font-size="5.14px" text-anchor="middle" dominant-baseline="auto">ccd-control.kicad_sch</text><polyline points="83.82,99.06 76.20,99.06" fill="none" stroke="#009600" stroke-width="0.46"/><text x="76.20" y="99.06" fill="#a90000" font-size="5.14px" text-anchor="middle" dominant-baseline="central">CCD_PWR_EN</text><polyline points="83.82,125.73 76.20,125.73" fill="none" stroke="#009600" stroke-width="0.46"/><text x="76.20" y="125.73" fill="#a90000" font-size="5.14px" text-anchor="middle" dominant-baseline="central">SEQ_U1_EN</text><polyline points="83.82,148.59 76.20,148.59" fill="none" stroke="#009600" stroke-width="0.46"/><text x="76.20" y="148.59" fill="#a90000" font-size="5.14px" text-anchor="middle" dominant-baseline="central">SEQ_U3_EN</text><polyline points="83.82,171.45 76.20,171.45" fill="none" stroke="#009600" stroke-width="0.46"/><text x="76.20" y="171.45" fill="#a90000" font-size="5.14px" text-anchor="middle" dominant-baseline="central">SEQ_U4_EN</text><polyline points="83.82,194.31 76.20,194.31" fill="none" stroke="#009600" stroke-width="0.46"/><text x="76.20" y="194.31" fill="#a90000" font-size="5.14px" text-anchor="middle" dominant-baseline="central">SEQ_U5_EN</text><polyline points="83.82,220.98 76.20,220.98" fill="none" stroke="#009600" stroke-width="0.46"/><text x="76.20" y="220.98" fill="#a90000" font-size="5.14px" text-anchor="middle" dominant-baseline="central">SEQ_U6_EN</text><polyline points="83.82,243.84 76.20,243.84" fill="none" stroke="#009600" stroke-width="0.46"/><text x="76.20" y="243.84" fill="#a90000" font-size="5.14px" text-anchor="middle" dominant-baseline="central">SEQ_U9_EN</text><polyline points="426.72,91.44 419.10,91.44" fill="none" stroke="#009600" stroke-width="0.46"/><text x="419.10" y="91.44" fill="#a90000" font-size="5.14px" text-anchor="middle" dominant-baseline="central">V1_top_in</text><polyline points="426.72,106.68 419.10,106.68" fill="none" stroke="#009600" stroke-width="0.46"/><text x="419.10" y="106.68" fill="#a90000" font-size="5.14px" text-anchor="middle" dominant-baseline="central">V1_bot_in</text><polyline points="426.72,121.92 419.10,121.92" fill="none" stroke="#009600" stroke-width="0.46"/><text x="419.10" y="121.92" fill="#a90000" font-size="5.14px" text-anchor="middle" dominant-baseline="central">V2_in</text><polyline points="426.72,137.16 419.10,137.16" fill="none" stroke="#009600" stroke-width="0.46"/><text x="419.10" y="137.16" fill="#a90000" font-size="5.14px" text-anchor="middle" dominant-baseline="central">H1_top_in</text><polyline points="426.72,152.40 419.10,152.40" fill="none" stroke="#009600" stroke-width="0.46"/><text x="419.10" y="152.40" fill="#a90000" font-size="5.14px" text-anchor="middle" dominant-baseline="central">H2_top_in</text><polyline points="426.72,167.64 419.10,167.64" fill="none" stroke="#009600" stroke-width="0.46"/><text x="419.10" y="167.64" fill="#a90000" font-size="5.14px" text-anchor="middle" dominant-baseline="central">H1_bot_in</text><polyline points="426.72,182.88 419.10,182.88" fill="none" stroke="#009600" stroke-width="0.46"/><text x="419.10" y="182.88" fill="#a90000" font-size="5.14px" text-anchor="middle" dominant-baseline="central">H2_bot_in</text><polyline points="426.72,198.12 419.10,198.12" fill="none" stroke="#009600" stroke-width="0.46"/><text x="419.10" y="198.12" fill="#a90000" font-size="5.14px" text-anchor="middle" dominant-baseline="central">RG_top_in</text><polyline points="426.72,213.36 419.10,213.36" fill="none" stroke="#009600" stroke-width="0.46"/><text x="419.10" y="213.36" fill="#a90000" font-size="5.14px" text-anchor="middle" dominant-baseline="central">RG_bot_in</text><polyline points="426.72,228.60 419.10,228.60" fill="none" stroke="#009600" stroke-width="0.46"/><text x="419.10" y="228.60" fill="#a90000" font-size="5.14px" text-anchor="middle" dominant-baseline="central">H1L_in</text><polyline points="678.18,91.44 685.80,91.44" fill="none" stroke="#009600" stroke-width="0.46"/><text x="685.80" y="91.44" fill="#a90000" font-size="5.14px" text-anchor="middle" dominant-baseline="central">V1_top_out</text><polyline points="678.18,106.68 685.80,106.68" fill="none" stroke="#009600" stroke-width="0.46"/><text x="685.80" y="106.68" fill="#a90000" font-size="5.14px" text-anchor="middle" dominant-baseline="central">V1_bot_out</text><polyline points="678.18,121.92 685.80,121.92" fill="none" stroke="#009600" stroke-width="0.46"/><text x="685.80" y="121.92" fill="#a90000" font-size="5.14px" text-anchor="middle" dominant-baseline="central">V2_out</text><polyline points="678.18,137.16 685.80,137.16" fill="none" stroke="#009600" stroke-width="0.46"/><text x="685.80" y="137.16" fill="#a90000" font-size="5.14px" text-anchor="middle" dominant-baseline="central">H1_top_out</text><polyline points="678.18,152.40 685.80,152.40" fill="none" stroke="#009600" stroke-width="0.46"/><text x="685.80" y="152.40" fill="#a90000" font-size="5.14px" text-anchor="middle" dominant-baseline="central">H2_top_out</text><polyline points="678.18,167.64 685.80,167.64" fill="none" stroke="#009600" stroke-width="0.46"/><text x="685.80" y="167.64" fill="#a90000" font-size="5.14px" text-anchor="middle" dominant-baseline="central">H1_bot_out</text><polyline points="678.18,182.88 685.80,182.88" fill="none" stroke="#009600" stroke-width="0.46"/><text x="685.80" y="182.88" fill="#a90000" font-size="5.14px" text-anchor="middle" dominant-baseline="central">H2_bot_out</text><polyline points="678.18,198.12 685.80,198.12" fill="none" stroke="#009600" stroke-width="0.46"/><text x="685.80" y="198.12" fill="#a90000" font-size="5.14px" text-anchor="middle" dominant-baseline="central">RG_top_out</text><polyline points="678.18,213.36 685.80,213.36" fill="none" stroke="#009600" stroke-width="0.46"/><text x="685.80" y="213.36" fill="#a90000" font-size="5.14px" text-anchor="middle" dominant-baseline="central">RG_bot_out</text><polyline points="678.18,228.60 685.80,228.60" fill="none" stroke="#009600" stroke-width="0.46"/><text x="685.80" y="228.60" fill="#a90000" font-size="5.14px" text-anchor="middle" dominant-baseline="central">H1L_out</text><polyline points="788.67,99.06 781.05,99.06" fill="none" stroke="#009600" stroke-width="0.46"/><text x="781.05" y="99.06" fill="#a90000" font-size="5.14px" text-anchor="middle" dominant-baseline="central">V1_top_out</text><polyline points="788.67,121.92 781.05,121.92" fill="none" stroke="#009600" stroke-width="0.46"/><text x="781.05" y="121.92" fill="#a90000" font-size="5.14px" text-anchor="middle" dominant-baseline="central">V1_bot_out</text><polyline points="788.67,144.78 781.05,144.78" fill="none" stroke="#009600" stroke-width="0.46"/><text x="781.05" y="144.78" fill="#a90000" font-size="5.14px" text-anchor="middle" dominant-baseline="central">V2_out</text><polyline points="788.67,167.64 781.05,167.64" fill="none" stroke="#009600" stroke-width="0.46"/><text x="781.05" y="167.64" fill="#a90000" font-size="5.14px" text-anchor="middle" dominant-baseline="central">H1_top_out</text><polyline points="788.67,190.50 781.05,190.50" fill="none" stroke="#009600" stroke-width="0.46"/><text x="781.05" y="190.50" fill="#a90000" font-size="5.14px" text-anchor="middle" dominant-baseline="central">H2_top_out</text><polyline points="788.67,209.55 781.05,209.55" fill="none" stroke="#009600" stroke-width="0.46"/><text x="781.05" y="209.55" fill="#a90000" font-size="5.14px" text-anchor="middle" dominant-baseline="central">H1_bot_out</text><polyline points="788.67,232.41 781.05,232.41" fill="none" stroke="#009600" stroke-width="0.46"/><text x="781.05" y="232.41" fill="#a90000" font-size="5.14px" text-anchor="middle" dominant-baseline="central">H2_bot_out</text><polyline points="788.67,255.27 781.05,255.27" fill="none" stroke="#009600" stroke-width="0.46"/><text x="781.05" y="255.27" fill="#a90000" font-size="5.14px" text-anchor="middle" dominant-baseline="central">RG_top_out</text><polyline points="788.67,278.13 781.05,278.13" fill="none" stroke="#009600" stroke-width="0.46"/><text x="781.05" y="278.13" fill="#a90000" font-size="5.14px" text-anchor="middle" dominant-baseline="central">RG_bot_out</text><polyline points="788.67,300.99 781.05,300.99" fill="none" stroke="#009600" stroke-width="0.46"/><text x="781.05" y="300.99" fill="#a90000" font-size="5.14px" text-anchor="middle" dominant-baseline="central">H1L_out</text><polyline points="963.93,125.73 971.55,125.73" fill="none" stroke="#009600" stroke-width="0.46"/><text x="971.55" y="125.73" fill="#a90000" font-size="5.14px" text-anchor="middle" dominant-baseline="central">VOUT_a</text><polyline points="963.93,175.26 971.55,175.26" fill="none" stroke="#009600" stroke-width="0.46"/><text x="971.55" y="175.26" fill="#a90000" font-size="5.14px" text-anchor="middle" dominant-baseline="central">VOUT_b</text><polyline points="963.93,224.79 971.55,224.79" fill="none" stroke="#009600" stroke-width="0.46"/><text x="971.55" y="224.79" fill="#a90000" font-size="5.14px" text-anchor="middle" dominant-baseline="central">VOUT_c</text><polyline points="963.93,274.32 971.55,274.32" fill="none" stroke="#009600" stroke-width="0.46"/><text x="971.55" y="274.32" fill="#a90000" font-size="5.14px" text-anchor="middle" dominant-baseline="central">VOUT_d</text><polyline points="426.72,339.09 419.10,339.09" fill="none" stroke="#009600" stroke-width="0.46"/><text x="419.10" y="339.09" fill="#a90000" font-size="5.14px" text-anchor="middle" dominant-baseline="central">CCD_PWR_EN</text><polyline points="426.72,373.38 419.10,373.38" fill="none" stroke="#009600" stroke-width="0.46"/><text x="419.10" y="373.38" fill="#a90000" font-size="5.14px" text-anchor="middle" dominant-baseline="central">TEC_EN</text><polyline points="426.72,407.67 419.10,407.67" fill="none" stroke="#009600" stroke-width="0.46"/><text x="419.10" y="407.67" fill="#a90000" font-size="5.14px" text-anchor="middle" dominant-baseline="central">FAN_PWM</text><polyline points="601.98,320.04 609.60,320.04" fill="none" stroke="#009600" stroke-width="0.46"/><text x="609.60" y="320.04" fill="#a90000" font-size="5.14px" text-anchor="middle" dominant-baseline="central">NTC_OUT</text><polyline points="601.98,331.47 609.60,331.47" fill="none" stroke="#009600" stroke-width="0.46"/><text x="609.60" y="331.47" fill="#a90000" font-size="5.14px" text-anchor="middle" dominant-baseline="central">TEC_PWR</text><polyline points="601.98,346.71 609.60,346.71" fill="none" stroke="#009600" stroke-width="0.46"/><text x="609.60" y="346.71" fill="#a90000" font-size="5.14px" text-anchor="middle" dominant-baseline="central">FAN_GND</text><polyline points="601.98,358.14 609.60,358.14" fill="none" stroke="#009600" stroke-width="0.46"/><text x="609.60" y="358.14" fill="#a90000" font-size="5.14px" text-anchor="middle" dominant-baseline="central">SEQ_U1_EN</text><polyline points="601.98,373.38 609.60,373.38" fill="none" stroke="#009600" stroke-width="0.46"/><text x="609.60" y="373.38" fill="#a90000" font-size="5.14px" text-anchor="middle" dominant-baseline="central">SEQ_U3_EN</text><polyline points="601.98,388.62 609.60,388.62" fill="none" stroke="#009600" stroke-width="0.46"/><text x="609.60" y="388.62" fill="#a90000" font-size="5.14px" text-anchor="middle" dominant-baseline="central">SEQ_U4_EN</text><polyline points="601.98,400.05 609.60,400.05" fill="none" stroke="#009600" stroke-width="0.46"/><text x="609.60" y="400.05" fill="#a90000" font-size="5.14px" text-anchor="middle" dominant-baseline="central">SEQ_U5_EN</text><polyline points="601.98,415.29 609.60,415.29" fill="none" stroke="#009600" stroke-width="0.46"/><text x="609.60" y="415.29" fill="#a90000" font-size="5.14px" text-anchor="middle" dominant-baseline="central">SEQ_U6_EN</text><polyline points="601.98,426.72 609.60,426.72" fill="none" stroke="#009600" stroke-width="0.46"/><text x="609.60" y="426.72" fill="#a90000" font-size="5.14px" text-anchor="middle" dominant-baseline="central">SEQ_U9_EN</text><polygon points="510.54,464.82 571.50,464.82 571.50,617.22 510.54,617.22 510.54,464.82" fill="none" stroke="#840000" stroke-width="0.76"/><polygon points="80.01,552.45 102.87,552.45 102.87,674.37 80.01,674.37 80.01,552.45" fill="none" stroke="#840000" stroke-width="0.76"/><polygon points="99.06,559.69 102.87,559.69 102.87,560.45 99.06,560.45 99.06,559.69" fill="none" stroke="#840000" stroke-width="0.76"/><polygon points="99.06,574.93 102.87,574.93 102.87,575.69 99.06,575.69 99.06,574.93" fill="none" stroke="#840000" stroke-width="0.76"/><polygon points="99.06,590.17 102.87,590.17 102.87,590.93 99.06,590.93 99.06,590.17" fill="none" stroke="#840000" stroke-width="0.76"/><polygon points="99.06,605.41 102.87,605.41 102.87,606.17 99.06,606.17 99.06,605.41" fill="none" stroke="#840000" stroke-width="0.76"/><polygon points="99.06,620.65 102.87,620.65 102.87,621.41 99.06,621.41 99.06,620.65" fill="none" stroke="#840000" stroke-width="0.76"/><polygon points="99.06,635.89 102.87,635.89 102.87,636.65 99.06,636.65 99.06,635.89" fill="none" stroke="#840000" stroke-width="0.76"/><polygon points="99.06,651.13 102.87,651.13 102.87,651.89 99.06,651.89 99.06,651.13" fill="none" stroke="#840000" stroke-width="0.76"/><polygon points="99.06,666.37 102.87,666.37 102.87,667.13 99.06,667.13 99.06,666.37" fill="none" stroke="#840000" stroke-width="0.76"/><polygon points="167.64,582.93 190.50,582.93 190.50,643.89 167.64,643.89 167.64,582.93" fill="none" stroke="#840000" stroke-width="0.76"/><polygon points="186.69,590.17 190.50,590.17 190.50,590.93 186.69,590.93 186.69,590.17" fill="none" stroke="#840000" stroke-width="0.76"/><polygon points="186.69,605.41 190.50,605.41 190.50,606.17 186.69,606.17 186.69,605.41" fill="none" stroke="#840000" stroke-width="0.76"/><polygon points="186.69,620.65 190.50,620.65 190.50,621.41 186.69,621.41 186.69,620.65" fill="none" stroke="#840000" stroke-width="0.76"/><polygon points="186.69,635.89 190.50,635.89 190.50,636.65 186.69,636.65 186.69,635.89" fill="none" stroke="#840000" stroke-width="0.76"/><polyline points="510.54,472.44 499.11,472.44" fill="none" stroke="#a90000" stroke-width="0.46"/><text x="511.07" y="472.44" fill="#a90000" font-size="5.14px" dominant-baseline="central">Pin_1</text><polyline points="571.50,472.44 582.93,472.44" fill="none" stroke="#a90000" stroke-width="0.46"/><text x="570.97" y="472.44" fill="#a90000" font-size="5.14px" text-anchor="end" dominant-baseline="central">Pin_2</text><polyline points="510.54,487.68 499.11,487.68" fill="none" stroke="#a90000" stroke-width="0.46"/><text x="511.07" y="487.68" fill="#a90000" font-size="5.14px" dominant-baseline="central">Pin_3</text><polyline points="571.50,487.68 582.93,487.68" fill="none" stroke="#a90000" stroke-width="0.46"/><text x="570.97" y="487.68" fill="#a90000" font-size="5.14px" text-anchor="end" dominant-baseline="central">Pin_4</text><polyline points="510.54,502.92 499.11,502.92" fill="none" stroke="#a90000" stroke-width="0.46"/><text x="511.07" y="502.92" fill="#a90000" font-size="5.14px" dominant-baseline="central">Pin_5</text><polyline points="571.50,502.92 582.93,502.92" fill="none" stroke="#a90000" stroke-width="0.46"/><text x="570.97" y="502.92" fill="#a90000" font-size="5.14px" text-anchor="end" dominant-baseline="central">Pin_6</text><polyline points="510.54,518.16 499.11,518.16" fill="none" stroke="#a90000" stroke-width="0.46"/><text x="511.07" y="518.16" fill="#a90000" font-size="5.14px" dominant-baseline="central">Pin_7</text><polyline points="571.50,518.16 582.93,518.16" fill="none" stroke="#a90000" stroke-width="0.46"/><text x="570.97" y="518.16" fill="#a90000" font-size="5.14px" text-anchor="end" dominant-baseline="central">Pin_8</text><polyline points="510.54,533.40 499.11,533.40" fill="none" stroke="#a90000" stroke-width="0.46"/><text x="511.07" y="533.40" fill="#a90000" font-size="5.14px" dominant-baseline="central">Pin_9</text><polyline points="571.50,533.40 582.93,533.40" fill="none" stroke="#a90000" stroke-width="0.46"/><text x="570.97" y="533.40" fill="#a90000" font-size="5.14px" text-anchor="end" dominant-baseline="central">Pin_10</text><polyline points="510.54,548.64 499.11,548.64" fill="none" stroke="#a90000" stroke-width="0.46"/><text x="511.07" y="548.64" fill="#a90000" font-size="5.14px" dominant-baseline="central">Pin_11</text><polyline points="571.50,548.64 582.93,548.64" fill="none" stroke="#a90000" stroke-width="0.46"/><text x="570.97" y="548.64" fill="#a90000" font-size="5.14px" text-anchor="end" dominant-baseline="central">Pin_12</text><polyline points="510.54,563.88 499.11,563.88" fill="none" stroke="#a90000" stroke-width="0.46"/><text x="511.07" y="563.88" fill="#a90000" font-size="5.14px" dominant-baseline="central">Pin_13</text><polyline points="571.50,563.88 582.93,563.88" fill="none" stroke="#a90000" stroke-width="0.46"/><text x="570.97" y="563.88" fill="#a90000" font-size="5.14px" text-anchor="end" dominant-baseline="central">Pin_14</text><polyline points="510.54,579.12 499.11,579.12" fill="none" stroke="#a90000" stroke-width="0.46"/><text x="511.07" y="579.12" fill="#a90000" font-size="5.14px" dominant-baseline="central">Pin_15</text><polyline points="571.50,579.12 582.93,579.12" fill="none" stroke="#a90000" stroke-width="0.46"/><text x="570.97" y="579.12" fill="#a90000" font-size="5.14px" text-anchor="end" dominant-baseline="central">Pin_16</text><polyline points="510.54,594.36 499.11,594.36" fill="none" stroke="#a90000" stroke-width="0.46"/><text x="511.07" y="594.36" fill="#a90000" font-size="5.14px" dominant-baseline="central">Pin_17</text><polyline points="571.50,594.36 582.93,594.36" fill="none" stroke="#a90000" stroke-width="0.46"/><text x="570.97" y="594.36" fill="#a90000" font-size="5.14px" text-anchor="end" dominant-baseline="central">Pin_18</text><polyline points="510.54,609.60 499.11,609.60" fill="none" stroke="#a90000" stroke-width="0.46"/><text x="511.07" y="609.60" fill="#a90000" font-size="5.14px" dominant-baseline="central">Pin_19</text><polyline points="571.50,609.60 582.93,609.60" fill="none" stroke="#a90000" stroke-width="0.46"/><text x="570.97" y="609.60" fill="#a90000" font-size="5.14px" text-anchor="end" dominant-baseline="central">Pin_20</text><polyline points="102.87,560.07 114.30,560.07" fill="none" stroke="#a90000" stroke-width="0.46"/><text x="102.34" y="560.07" fill="#a90000" font-size="5.14px" text-anchor="end" dominant-baseline="central">Pin_1</text><polyline points="102.87,575.31 114.30,575.31" fill="none" stroke="#a90000" stroke-width="0.46"/><text x="102.34" y="575.31" fill="#a90000" font-size="5.14px" text-anchor="end" dominant-baseline="central">Pin_2</text><polyline points="102.87,590.55 114.30,590.55" fill="none" stroke="#a90000" stroke-width="0.46"/><text x="102.34" y="590.55" fill="#a90000" font-size="5.14px" text-anchor="end" dominant-baseline="central">Pin_3</text><polyline points="102.87,605.79 114.30,605.79" fill="none" stroke="#a90000" stroke-width="0.46"/><text x="102.34" y="605.79" fill="#a90000" font-size="5.14px" text-anchor="end" dominant-baseline="central">Pin_4</text><polyline points="102.87,621.03 114.30,621.03" fill="none" stroke="#a90000" stroke-width="0.46"/><text x="102.34" y="621.03" fill="#a90000" font-size="5.14px" text-anchor="end" dominant-baseline="central">Pin_5</text><polyline points="102.87,636.27 114.30,636.27" fill="none" stroke="#a90000" stroke-width="0.46"/><text x="102.34" y="636.27" fill="#a90000" font-size="5.14px" text-anchor="end" dominant-baseline="central">Pin_6</text><polyline points="102.87,651.51 114.30,651.51" fill="none" stroke="#a90000" stroke-width="0.46"/><text x="102.34" y="651.51" fill="#a90000" font-size="5.14px" text-anchor="end" dominant-baseline="central">Pin_7</text><polyline points="102.87,666.75 114.30,666.75" fill="none" stroke="#a90000" stroke-width="0.46"/><text x="102.34" y="666.75" fill="#a90000" font-size="5.14px" text-anchor="end" dominant-baseline="central">Pin_8</text><polyline points="190.50,590.55 201.93,590.55" fill="none" stroke="#a90000" stroke-width="0.46"/><text x="189.97" y="590.55" fill="#a90000" font-size="5.14px" text-anchor="end" dominant-baseline="central">Pin_1</text><polyline points="190.50,605.79 201.93,605.79" fill="none" stroke="#a90000" stroke-width="0.46"/><text x="189.97" y="605.79" fill="#a90000" font-size="5.14px" text-anchor="end" dominant-baseline="central">Pin_2</text><polyline points="190.50,621.03 201.93,621.03" fill="none" stroke="#a90000" stroke-width="0.46"/><text x="189.97" y="621.03" fill="#a90000" font-size="5.14px" text-anchor="end" dominant-baseline="central">Pin_3</text><polyline points="190.50,636.27 201.93,636.27" fill="none" stroke="#a90000" stroke-width="0.46"/><text x="189.97" y="636.27" fill="#a90000" font-size="5.14px" text-anchor="end" dominant-baseline="central">Pin_4</text><text x="541.02" y="461.01" fill="#006464" font-size="5.14px" text-anchor="middle" dominant-baseline="central">J1</text><text x="541.02" y="621.03" fill="#006464" font-size="5.14px" text-anchor="middle" dominant-baseline="central">Main_Control</text><text x="541.02" y="632.46" fill="#c86482" font-size="5.14px" text-anchor="middle" dominant-baseline="central">Connector_PinHeader_2.54mm:PinHeader_2x10_P2.54mm_Vertical</text><text x="91.44" y="548.64" fill="#006464" font-size="5.14px" text-anchor="middle" dominant-baseline="central">J2</text><text x="91.44" y="678.18" fill="#006464" font-size="5.14px" text-anchor="middle" dominant-baseline="central">Analog_Output</text><text x="91.44" y="689.61" fill="#c86482" font-size="5.14px" text-anchor="middle" dominant-baseline="central">Connector_PinHeader_2.54mm:PinHeader_1x08_P2.54mm_Vertical</text><text x="179.07" y="579.12" fill="#006464" font-size="5.14px" text-anchor="middle" dominant-baseline="central">J3</text><text x="179.07" y="647.70" fill="#006464" font-size="5.14px" text-anchor="middle" dominant-baseline="central">TEC_Fan</text><text x="179.07" y="659.13" fill="#c86482" font-size="5.14px" text-anchor="middle" dominant-baseline="central">Connector_PinHeader_2.54mm:PinHeader_1x04_P2.54mm_Vertical</text><text x="119.94" y="575.31" fill="#840000" font-size="5.14px">AGND</text><polygon points="114.30,575.31 114.30,579.10 132.85,579.10 132.85,575.31 132.85,571.52 114.30,571.52 114.30,575.31" fill="none" stroke="#840000" stroke-width="0.46"/><text x="119.94" y="605.79" fill="#840000" font-size="5.14px">AGND</text><polygon points="114.30,605.79 114.30,609.58 132.85,609.58 132.85,605.79 132.85,602.00 114.30,602.00 114.30,605.79" fill="none" stroke="#840000" stroke-width="0.46"/><text x="119.94" y="636.27" fill="#840000" font-size="5.14px">AGND</text><polygon points="114.30,636.27 114.30,640.06 132.85,640.06 132.85,636.27 132.85,632.48 114.30,632.48 114.30,636.27" fill="none" stroke="#840000" stroke-width="0.46"/><text x="119.94" y="666.75" fill="#840000" font-size="5.14px">AGND</text><polygon points="114.30,666.75 114.30,670.54 132.85,670.54 132.85,666.75 132.85,662.96 114.30,662.96 114.30,666.75" fill="none" stroke="#840000" stroke-width="0.46"/><text x="588.57" y="533.40" fill="#840000" font-size="5.14px">GND_STAR</text><polygon points="582.93,533.40 582.93,537.19 616.72,537.19 616.72,533.40 616.72,529.61 582.93,529.61 582.93,533.40" fill="none" stroke="#840000" stroke-width="0.46"/><text x="588.57" y="472.44" fill="#840000" font-size="5.14px">GND_STAR</text><polygon points="582.93,472.44 582.93,476.23 616.72,476.23 616.72,472.44 616.72,468.65 582.93,468.65 582.93,472.44" fill="none" stroke="#840000" stroke-width="0.46"/><text x="588.57" y="609.60" fill="#840000" font-size="5.14px">GND_STAR</text><polygon points="582.93,609.60 582.93,613.39 616.72,613.39 616.72,609.60 616.72,605.81 582.93,605.81 582.93,609.60" fill="none" stroke="#840000" stroke-width="0.46"/><text x="588.57" y="487.68" fill="#840000" font-size="5.14px">GND_STAR</text><polygon points="582.93,487.68 582.93,491.47 616.72,491.47 616.72,487.68 616.72,483.89 582.93,483.89 582.93,487.68" fill="none" stroke="#840000" stroke-width="0.46"/><text x="475.18" y="472.44" fill="#840000" font-size="5.14px">VBAT_7V4</text><polygon points="499.11,472.44 499.11,468.65 465.32,468.65 465.32,472.44 465.32,476.23 499.11,476.23 499.11,472.44" fill="none" stroke="#840000" stroke-width="0.46"/><text x="475.18" y="487.68" fill="#840000" font-size="5.14px">3V3_STBY</text><polygon points="499.11,487.68 499.11,483.89 465.32,483.89 465.32,487.68 465.32,491.47 499.11,491.47 499.11,487.68" fill="none" stroke="#840000" stroke-width="0.46"/><text x="207.57" y="590.55" fill="#840000" font-size="5.14px">+12V</text><polygon points="201.93,590.55 201.93,594.34 220.48,594.34 220.48,590.55 220.48,586.76 201.93,586.76 201.93,590.55" fill="none" stroke="#840000" stroke-width="0.46"/><text x="207.57" y="621.03" fill="#840000" font-size="5.14px">+12V</text><polygon points="201.93,621.03 201.93,624.82 220.48,624.82 220.48,621.03 220.48,617.24 201.93,617.24 201.93,621.03" fill="none" stroke="#840000" stroke-width="0.46"/><text x="478.54" y="518.16" fill="#0f0f0f" font-size="5.14px">V1_top_in</text><text x="582.93" y="518.16" fill="#0f0f0f" font-size="5.14px">V1_bot_in</text><text x="487.68" y="533.40" fill="#0f0f0f" font-size="5.14px">V2_in</text><text x="478.54" y="548.64" fill="#0f0f0f" font-size="5.14px">H1_top_in</text><text x="582.93" y="548.64" fill="#0f0f0f" font-size="5.14px">H2_top_in</text><text x="478.54" y="563.88" fill="#0f0f0f" font-size="5.14px">H1_bot_in</text><text x="582.93" y="563.88" fill="#0f0f0f" font-size="5.14px">H2_bot_in</text><text x="478.54" y="579.12" fill="#0f0f0f" font-size="5.14px">RG_top_in</text><text x="582.93" y="579.12" fill="#0f0f0f" font-size="5.14px">RG_bot_in</text><text x="485.39" y="594.36" fill="#0f0f0f" font-size="5.14px">H1L_in</text><text x="114.30" y="560.07" fill="#0f0f0f" font-size="5.14px">VOUT_a</text><text x="114.30" y="590.55" fill="#0f0f0f" font-size="5.14px">VOUT_b</text><text x="114.30" y="621.03" fill="#0f0f0f" font-size="5.14px">VOUT_c</text><text x="114.30" y="651.51" fill="#0f0f0f" font-size="5.14px">VOUT_d</text><text x="476.25" y="502.92" fill="#0f0f0f" font-size="5.14px">CCD_PWR_EN</text><text x="582.93" y="502.92" fill="#0f0f0f" font-size="5.14px">TEC_EN</text><text x="582.93" y="594.36" fill="#0f0f0f" font-size="5.14px">FAN_PWM</text><text x="483.11" y="609.60" fill="#0f0f0f" font-size="5.14px">NTC_OUT</text><text x="201.93" y="605.79" fill="#0f0f0f" font-size="5.14px">TEC_PWR</text><text x="201.93" y="636.27" fill="#0f0f0f" font-size="5.14px">FAN_GND</text><text x="76.20" y="99.06" fill="#0f0f0f" font-size="5.14px">CCD_PWR_EN</text><text x="76.20" y="125.73" fill="#0f0f0f" font-size="5.14px">SEQ_U1_EN</text><text x="76.20" y="148.59" fill="#0f0f0f" font-size="5.14px">SEQ_U3_EN</text><text x="76.20" y="171.45" fill="#0f0f0f" font-size="5.14px">SEQ_U4_EN</text><text x="76.20" y="194.31" fill="#0f0f0f" font-size="5.14px">SEQ_U5_EN</text><text x="76.20" y="220.98" fill="#0f0f0f" font-size="5.14px">SEQ_U6_EN</text><text x="76.20" y="243.84" fill="#0f0f0f" font-size="5.14px">SEQ_U9_EN</text><text x="419.10" y="91.44" fill="#0f0f0f" font-size="5.14px">V1_top_in</text><text x="419.10" y="106.68" fill="#0f0f0f" font-size="5.14px">V1_bot_in</text><text x="419.10" y="121.92" fill="#0f0f0f" font-size="5.14px">V2_in</text><text x="419.10" y="137.16" fill="#0f0f0f" font-size="5.14px">H1_top_in</text><text x="419.10" y="152.40" fill="#0f0f0f" font-size="5.14px">H2_top_in</text><text x="419.10" y="167.64" fill="#0f0f0f" font-size="5.14px">H1_bot_in</text><text x="419.10" y="182.88" fill="#0f0f0f" font-size="5.14px">H2_bot_in</text><text x="419.10" y="198.12" fill="#0f0f0f" font-size="5.14px">RG_top_in</text><text x="419.10" y="213.36" fill="#0f0f0f" font-size="5.14px">RG_bot_in</text><text x="419.10" y="228.60" fill="#0f0f0f" font-size="5.14px">H1L_in</text><text x="685.80" y="91.44" fill="#0f0f0f" font-size="5.14px">V1_top_out</text><text x="685.80" y="106.68" fill="#0f0f0f" font-size="5.14px">V1_bot_out</text><text x="685.80" y="121.92" fill="#0f0f0f" font-size="5.14px">V2_out</text><text x="685.80" y="137.16" fill="#0f0f0f" font-size="5.14px">H1_top_out</text><text x="685.80" y="152.40" fill="#0f0f0f" font-size="5.14px">H2_top_out</text><text x="685.80" y="167.64" fill="#0f0f0f" font-size="5.14px">H1_bot_out</text><text x="685.80" y="182.88" fill="#0f0f0f" font-size="5.14px">H2_bot_out</text><text x="685.80" y="198.12" fill="#0f0f0f" font-size="5.14px">RG_top_out</text><text x="685.80" y="213.36" fill="#0f0f0f" font-size="5.14px">RG_bot_out</text><text x="685.80" y="228.60" fill="#0f0f0f" font-size="5.14px">H1L_out</text><text x="781.05" y="99.06" fill="#0f0f0f" font-size="5.14px">V1_top_out</text><text x="781.05" y="121.92" fill="#0f0f0f" font-size="5.14px">V1_bot_out</text><text x="781.05" y="144.78" fill="#0f0f0f" font-size="5.14px">V2_out</text><text x="781.05" y="167.64" fill="#0f0f0f" font-size="5.14px">H1_top_out</text><text x="781.05" y="190.50" fill="#0f0f0f" font-size="5.14px">H2_top_out</text><text x="781.05" y="209.55" fill="#0f0f0f" font-size="5.14px">H1_bot_out</text><text x="781.05" y="232.41" fill="#0f0f0f" font-size="5.14px">H2_bot_out</text><text x="781.05" y="255.27" fill="#0f0f0f" font-size="5.14px">RG_top_out</text><text x="781.05" y="278.13" fill="#0f0f0f" font-size="5.14px">RG_bot_out</text><text x="781.05" y="300.99" fill="#0f0f0f" font-size="5.14px">H1L_out</text><text x="971.55" y="125.73" fill="#0f0f0f" font-size="5.14px">VOUT_a</text><text x="971.55" y="175.26" fill="#0f0f0f" font-size="5.14px">VOUT_b</text><text x="971.55" y="224.79" fill="#0f0f0f" font-size="5.14px">VOUT_c</text><text x="971.55" y="274.32" fill="#0f0f0f" font-size="5.14px">VOUT_d</text><text x="419.10" y="339.09" fill="#0f0f0f" font-size="5.14px">CCD_PWR_EN</text><text x="419.10" y="373.38" fill="#0f0f0f" font-size="5.14px">TEC_EN</text><text x="419.10" y="407.67" fill="#0f0f0f" font-size="5.14px">FAN_PWM</text><text x="609.60" y="320.04" fill="#0f0f0f" font-size="5.14px">NTC_OUT</text><text x="609.60" y="331.47" fill="#0f0f0f" font-size="5.14px">TEC_PWR</text><text x="609.60" y="346.71" fill="#0f0f0f" font-size="5.14px">FAN_GND</text><text x="609.60" y="358.14" fill="#0f0f0f" font-size="5.14px">SEQ_U1_EN</text><text x="609.60" y="373.38" fill="#0f0f0f" font-size="5.14px">SEQ_U3_EN</text><text x="609.60" y="388.62" fill="#0f0f0f" font-size="5.14px">SEQ_U4_EN</text><text x="609.60" y="400.05" fill="#0f0f0f" font-size="5.14px">SEQ_U5_EN</text><text x="609.60" y="415.29" fill="#0f0f0f" font-size="5.14px">SEQ_U6_EN</text><text x="609.60" y="426.72" fill="#0f0f0f" font-size="5.14px">SEQ_U9_EN</text>
</svg>