<svg xmlns="http://www.w3.org/2000/svg" viewBox="-2.00 -2.00 634.00 448.00">
<rect x="-2.00" y="-2.00" width="634.00" height="448.00" fill="white"/>
<polygon points="0.00,0.00 630.00,0.00 630.00,444.00 0.00,444.00 0.00,0.00" fill="none" stroke="#840000" stroke-width="0.45"/><polygon points="30.00,30.00 600.00,30.00 600.00,414.00 30.00,414.00 30.00,30.00" fill="none" stroke="#840000" stroke-width="0.45"/><polygon points="36.00,36.00 594.00,36.00 594.00,408.00 36.00,408.00 36.00,36.00" fill="none" stroke="#840000" stroke-width="0.45"/><polyline points="180.00,30.00 180.00,36.00" fill="none" stroke="#840000" stroke-width="0.45"/><text x="105.00" y="33.00" fill="#840000" font-size="5.27px">1</text><polyline points="330.00,30.00 330.00,36.00" fill="none" stroke="#840000" stroke-width="0.45"/><text x="255.00" y="33.00" fill="#840000" font-size="5.27px">2</text><polyline points="480.00,30.00 480.00,36.00" fill="none" stroke="#840000" stroke-width="0.45"/><text x="405.00" y="33.00" fill="#840000" font-size="5.27px">3</text><polyline points="180.00,414.00 180.00,408.00" fill="none" stroke="#840000" stroke-width="0.45"/><text x="105.00" y="411.00" fill="#840000" font-size="5.27px">1</text><polyline points="330.00,414.00 330.00,408.00" fill="none" stroke="#840000" stroke-width="0.45"/><text x="255.00" y="411.00" fill="#840000" font-size="5.27px">2</text><polyline points="480.00,414.00 480.00,408.00" fill="none" stroke="#840000" stroke-width="0.45"/><text x="405.00" y="411.00" fill="#840000" font-size="5.27px">3</text><polyline points="30.00,180.00 36.00,180.00" fill="none" stroke="#840000" stroke-width="0.45"/><text x="33.00" y="105.00" fill="#840000" font-size="5.27px">A</text><polyline points="30.00,330.00 36.00,330.00" fill="none" stroke="#840000" stroke-width="0.45"/><text x="33.00" y="255.00" fill="#840000" font-size="5.27px">B</text><polyline points="600.00,180.00 594.00,180.00" fill="none" stroke="#840000" stroke-width="0.45"/><text x="597.00" y="105.00" fill="#840000" font-size="5.27px">A</text><polyline points="600.00,330.00 594.00,330.00" fill="none" stroke="#840000" stroke-width="0.45"/><text x="597.00" y="255.00" fill="#840000" font-size="5.27px">B</text><polygon points="270.00,312.00 594.00,312.00 594.00,408.00 270.00,408.00 270.00,312.00" fill="none" stroke="#840000" stroke-width="0.45"/><polyline points="270.00,397.50 594.00,397.50" fill="none" stroke="#840000" stroke-width="0.45"/><polyline points="270.00,388.50 594.00,388.50" fill="none" stroke="#840000" stroke-width="0.45"/><polyline points="270.00,376.50 594.00,376.50" fill="none" stroke="#840000" stroke-width="0.45"/><polyline points="270.00,358.50 594.00,358.50" fill="none" stroke="#840000" stroke-width="0.45"/><polyline points="330.00,397.50 330.00,388.50" fill="none" stroke="#840000" stroke-width="0.45"/><polyline points="522.00,408.00 522.00,388.50" fill="none" stroke="#840000" stroke-width="0.45"/><text x="273.00" y="403.20" fill="#840000" font-size="6.08px">kicad-render</text><text x="528.00" y="403.20" fill="#840000" font-size="6.08px">Id: 1/1</text><text x="339.00" y="394.80" fill="#840000" font-size="6.08px">Date: 2024-03-04</text><text x="528.00" y="394.80" fill="#840000" font-size="6.08px" font-weight="bold">Rev: 0.2</text><text x="273.00" y="394.80" fill="#840000" font-size="6.08px">Size: A5</text><text x="273.00" y="384.30" fill="#840000" font-size="8.10px">Title: Tiny Scarab</text><text x="273.00" y="372.60" fill="#840000" font-size="6.08px">File: Voltage-selection.kicad_sch</text><text x="273.00" y="364.50" fill="#840000" font-size="6.08px">Sheet: /</text><text x="273.00" y="355.50" fill="#840000" font-size="6.08px">Embeetle</text><text x="273.00" y="346.50" fill="#840000" font-size="6.08px">https://embeetle.com/tiny-scarab</text><text x="273.00" y="337.50" fill="#840000" font-size="6.08px">https://github.com/Embeetle/tiny-scarab</text><text x="461.01" y="243.19" fill="#0000c2" font-size="5.14px" font-weight="bold">Sheet Output</text><text x="304.80" y="78.60" fill="#0000c2" font-size="5.14px">This circuit connects VDD to either</text><text x="304.80" y="84.77" fill="#0000c2" font-size="5.14px">5V or 3V3. When G1 is low, it makes</text><text x="304.80" y="90.94" fill="#0000c2" font-size="5.14px">PMOS Q4 conduct. When G2 is low,</text><text x="304.80" y="97.12" fill="#0000c2" font-size="5.14px">it makes PMOS Q5 and Q6 conduct.</text><text x="304.80" y="109.46" fill="#0000c2" font-size="5.14px">PMOS Q5 and Q6 are in anti-series</text><text x="304.80" y="115.63" fill="#0000c2" font-size="5.14px">(notice how Q6 is differently or-</text><text x="304.80" y="121.81" fill="#0000c2" font-size="5.14px">iented than Q5) such that the body</text><text x="304.80" y="127.98" fill="#0000c2" font-size="5.14px">diodes won&apos;t let the 5V flow into the</text><text x="304.80" y="134.15" fill="#0000c2" font-size="5.14px">3V3 when Q4 is conducting and Q5</text><text x="304.80" y="140.32" fill="#0000c2" font-size="5.14px">and Q6 are off.</text><text x="304.80" y="67.93" fill="#0000c2" font-size="5.14px" font-weight="bold">Voltage Selection Circuit</text><text x="41.91" y="78.07" fill="#0000c2" font-size="5.14px">The input to this schematic sheet is</text><text x="41.91" y="84.24" fill="#0000c2" font-size="5.14px">all the voltage levels:</text><text x="41.91" y="90.41" fill="#0000c2" font-size="5.14px">&gt; GND</text><text x="41.91" y="96.58" fill="#0000c2" font-size="5.14px">&gt; +5V</text><text x="41.91" y="102.76" fill="#0000c2" font-size="5.14px">&gt; +3V3</text><text x="41.91" y="115.10" fill="#0000c2" font-size="5.14px">It&apos;s not strictly necessary to input</text><text x="41.91" y="121.27" fill="#0000c2" font-size="5.14px">them here, as they&apos;re global symbols.</text><text x="41.91" y="67.93" fill="#0000c2" font-size="5.14px" font-weight="bold">Sheet Input</text><text x="175.26" y="77.00" fill="#0000c2" font-size="5.14px">The slide switch pulls either</text><text x="175.26" y="83.17" fill="#0000c2" font-size="5.14px">signal G1 or signal G2 to GND.</text><text x="270.51" y="52.04" fill="#0000c2" font-size="10.29px" font-weight="bold">VOLTAGE SELECTION</text><text x="175.26" y="67.93" fill="#0000c2" font-size="5.14px" font-weight="bold">Slide Switch</text><text x="304.80" y="154.27" fill="#0000c2" font-size="5.14px">The selected PMOS is DMP1045U-7.</text><text x="304.80" y="160.44" fill="#0000c2" font-size="5.14px">This PMOS has a low on-resistance.</text><text x="304.80" y="166.61" fill="#0000c2" font-size="5.14px">When the V_GS = 3V3, the resistance</text><text x="304.80" y="172.78" fill="#0000c2" font-size="5.14px">is less than 40mΩ.</text><text x="304.80" y="185.13" fill="#0000c2" font-size="5.14px">This PMOS conducts 500mA without</text><text x="304.80" y="191.30" fill="#0000c2" font-size="5.14px">issues - it can actually go way</text><text x="304.80" y="197.47" fill="#0000c2" font-size="5.14px">higher.</text><text x="461.01" y="251.35" fill="#0000c2" font-size="5.14px">The output of this sheet is the VDD</text><text x="461.01" y="257.52" fill="#0000c2" font-size="5.14px">voltage level. As it&apos;s a global</text><text x="461.01" y="263.69" fill="#0000c2" font-size="5.14px">symbol, it&apos;s strictly not necessary</text><text x="461.01" y="269.86" fill="#0000c2" font-size="5.14px">to output it here.</text><polyline points="167.64,57.15 167.64,209.55" fill="none" stroke="#0000c2" stroke-width="0.46"/><polyline points="297.18,209.55 167.64,209.55" fill="none" stroke="#0000c2" stroke-width="0.46"/><polyline points="297.18,57.15 297.18,312.42" fill="none" stroke="#0000c2" stroke-width="0.46"/><polyline points="590.55,232.41 453.39,232.41" fill="none" stroke="#0000c2" stroke-width="0.46"/><polyline points="453.39,232.41 453.39,308.61" fill="none" stroke="#0000c2" stroke-width="0.46"/><polyline points="167.64,209.55 38.10,209.55" fill="none" stroke="#0000c2" stroke-width="0.46"/><polyline points="590.55,57.15 38.10,57.15" fill="none" stroke="#0000c2" stroke-width="1.20"/><polyline points="543.31,188.98 531.11,188.98" fill="none" stroke="#840000" stroke-width="1.52"/><polyline points="543.31,184.40 531.11,184.40" fill="none" stroke="#840000" stroke-width="1.52"/><polyline points="512.83,188.98 500.63,188.98" fill="none" stroke="#840000" stroke-width="1.52"/><polyline points="512.83,184.40 500.63,184.40" fill="none" stroke="#840000" stroke-width="1.52"/><polyline points="80.01,150.11 76.20,152.40" fill="none" stroke="#840000" stroke-width="0.46"/><polyline points="83.82,152.40 76.20,152.40" fill="none" stroke="#840000" stroke-width="0.46"/><polyline points="76.20,152.40 80.01,154.69" fill="none" stroke="#840000" stroke-width="0.46"/><polyline points="233.17,147.07 233.17,148.59 239.27,148.59 239.27,150.11" fill="none" stroke="#840000" stroke-width="0.76"/><polyline points="233.17,152.40 239.27,152.40 233.17,144.78 239.27,144.78 233.17,152.40" fill="none" stroke="#840000" stroke-width="0.76"/><polyline points="560.83,148.59 552.45,148.59" fill="none" stroke="#840000" stroke-width="0.46"/><polyline points="560.83,142.88 560.83,154.31" fill="none" stroke="#840000" stroke-width="0.76"/><polyline points="562.36,152.40 562.36,155.45" fill="none" stroke="#840000" stroke-width="0.76"/><polyline points="562.36,147.07 562.36,150.11" fill="none" stroke="#840000" stroke-width="0.76"/><polyline points="562.36,141.73 562.36,144.78" fill="none" stroke="#840000" stroke-width="0.76"/><polyline points="567.69,140.97 567.69,143.26" fill="none" stroke="#840000" stroke-width="0.46"/><polyline points="567.69,156.21 567.69,148.59 562.36,148.59" fill="none" stroke="#840000" stroke-width="0.46"/><polyline points="562.36,143.26 569.98,143.26 569.98,153.92 562.36,153.92" fill="none" stroke="#840000" stroke-width="0.46"/><polyline points="566.93,148.59 563.88,147.45 563.88,149.73 566.93,148.59" fill="none" stroke="#840000" stroke-width="0.46"/><polyline points="568.45,150.11 568.83,149.73 571.12,149.73 571.50,149.35" fill="none" stroke="#840000" stroke-width="0.46"/><polyline points="569.98,149.73 568.83,147.83 571.12,147.83 569.98,149.73" fill="none" stroke="#840000" stroke-width="0.46"/><circle cx="565.02" cy="148.59" r="8.38" fill="none" stroke="#840000" stroke-width="0.76"/><circle cx="567.69" cy="153.92" r="0.76" fill="#840000" stroke="#840000" stroke-width="0.46"/><circle cx="567.69" cy="143.26" r="0.76" fill="#840000" stroke="#840000" stroke-width="0.46"/><polyline points="473.96,72.39 476.25,68.58" fill="none" stroke="#840000" stroke-width="0.46"/><polyline points="476.25,76.20 476.25,68.58" fill="none" stroke="#840000" stroke-width="0.46"/><polyline points="476.25,68.58 478.54,72.39" fill="none" stroke="#840000" stroke-width="0.46"/><polygon points="437.39,87.63 431.29,87.63 431.29,102.87 437.39,102.87 437.39,87.63" fill="none" stroke="#840000" stroke-width="0.76"/><polyline points="83.82,163.83 83.82,167.64 80.01,167.64 83.82,171.45 87.63,167.64 83.82,167.64" fill="none" stroke="#840000" stroke-width="0.46"/><polyline points="243.84,167.64 243.84,171.45 247.65,171.45 243.84,175.26 240.03,171.45 243.84,171.45" fill="none" stroke="#840000" stroke-width="0.46"/><polyline points="558.55,188.98 546.35,188.98" fill="none" stroke="#840000" stroke-width="1.52"/><polyline points="558.55,184.40 546.35,184.40" fill="none" stroke="#840000" stroke-width="1.52"/><polyline points="560.83,114.30 552.45,114.30" fill="none" stroke="#840000" stroke-width="0.46"/><polyline points="560.83,120.02 560.83,108.59" fill="none" stroke="#840000" stroke-width="0.76"/><polyline points="562.36,110.49 562.36,107.44" fill="none" stroke="#840000" stroke-width="0.76"/><polyline points="562.36,115.82 562.36,112.78" fill="none" stroke="#840000" stroke-width="0.76"/><polyline points="562.36,121.16 562.36,118.11" fill="none" stroke="#840000" stroke-width="0.76"/><polyline points="567.69,121.92 567.69,119.63" fill="none" stroke="#840000" stroke-width="0.46"/><polyline points="567.69,106.68 567.69,114.30 562.36,114.30" fill="none" stroke="#840000" stroke-width="0.46"/><polyline points="562.36,119.63 569.98,119.63 569.98,108.97 562.36,108.97" fill="none" stroke="#840000" stroke-width="0.46"/><polyline points="566.93,114.30 563.88,115.44 563.88,113.16 566.93,114.30" fill="none" stroke="#840000" stroke-width="0.46"/><polyline points="568.45,112.78 568.83,113.16 571.12,113.16 571.50,113.54" fill="none" stroke="#840000" stroke-width="0.46"/><polyline points="569.98,113.16 568.83,115.06 571.12,115.06 569.98,113.16" fill="none" stroke="#840000" stroke-width="0.46"/><circle cx="565.02" cy="114.30" r="8.38" fill="none" stroke="#840000" stroke-width="0.76"/><circle cx="567.69" cy="108.97" r="0.76" fill="#840000" stroke="#840000" stroke-width="0.46"/><circle cx="567.69" cy="119.63" r="0.76" fill="#840000" stroke="#840000" stroke-width="0.46"/><polyline points="497.59,188.98 485.39,188.98" fill="none" stroke="#840000" stroke-width="1.52"/><polyline points="497.59,184.40 485.39,184.40" fill="none" stroke="#840000" stroke-width="1.52"/><polyline points="573.79,188.98 561.59,188.98" fill="none" stroke="#840000" stroke-width="1.52"/><polyline points="573.79,184.40 561.59,184.40" fill="none" stroke="#840000" stroke-width="1.52"/><polyline points="252.22,147.07 252.22,148.59 258.32,148.59 258.32,150.11" fill="none" stroke="#840000" stroke-width="0.76"/><polyline points="252.22,152.40 258.32,152.40 252.22,144.78 258.32,144.78 252.22,152.40" fill="none" stroke="#840000" stroke-width="0.76"/><polyline points="182.88,121.92 182.88,125.73 186.69,125.73 182.88,129.54 179.07,125.73 182.88,125.73" fill="none" stroke="#840000" stroke-width="0.46"/><polyline points="482.35,188.98 470.15,188.98" fill="none" stroke="#840000" stroke-width="1.52"/><polyline points="482.35,184.40 470.15,184.40" fill="none" stroke="#840000" stroke-width="1.52"/><polyline points="569.98,72.39 567.69,68.58" fill="none" stroke="#840000" stroke-width="0.46"/><polyline points="567.69,76.20 567.69,68.58" fill="none" stroke="#840000" stroke-width="0.46"/><polyline points="567.69,68.58 565.40,72.39" fill="none" stroke="#840000" stroke-width="0.46"/><polygon points="540.26,87.63 534.16,87.63 534.16,102.87 540.26,102.87 540.26,87.63" fill="none" stroke="#840000" stroke-width="0.76"/><circle cx="203.45" cy="114.30" r="1.52" fill="none" stroke="#840000" stroke-width="0.46"/><circle cx="215.65" cy="121.92" r="1.52" fill="none" stroke="#840000" stroke-width="0.46"/><polyline points="204.98,113.54 214.50,107.44" fill="none" stroke="#840000" stroke-width="0.46"/><circle cx="215.65" cy="106.68" r="1.52" fill="none" stroke="#840000" stroke-width="0.46"/><polyline points="519.68,152.40 521.97,148.59" fill="none" stroke="#840000" stroke-width="0.46"/><polyline points="521.97,156.21 521.97,148.59" fill="none" stroke="#840000" stroke-width="0.46"/><polyline points="521.97,148.59 524.26,152.40" fill="none" stroke="#840000" stroke-width="0.46"/><polyline points="521.97,213.36 521.97,217.17 525.78,217.17 521.97,220.98 518.16,217.17 521.97,217.17" fill="none" stroke="#840000" stroke-width="0.46"/><polyline points="469.39,114.30 461.01,114.30" fill="none" stroke="#840000" stroke-width="0.46"/><polyline points="469.39,120.02 469.39,108.59" fill="none" stroke="#840000" stroke-width="0.76"/><polyline points="470.92,110.49 470.92,107.44" fill="none" stroke="#840000" stroke-width="0.76"/><polyline points="470.92,115.82 470.92,112.78" fill="none" stroke="#840000" stroke-width="0.76"/><polyline points="470.92,121.16 470.92,118.11" fill="none" stroke="#840000" stroke-width="0.76"/><polyline points="476.25,121.92 476.25,119.63" fill="none" stroke="#840000" stroke-width="0.46"/><polyline points="476.25,106.68 476.25,114.30 470.92,114.30" fill="none" stroke="#840000" stroke-width="0.46"/><polyline points="470.92,119.63 478.54,119.63 478.54,108.97 470.92,108.97" fill="none" stroke="#840000" stroke-width="0.46"/><polyline points="475.49,114.30 472.44,115.44 472.44,113.16 475.49,114.30" fill="none" stroke="#840000" stroke-width="0.46"/><polyline points="477.01,112.78 477.39,113.16 479.68,113.16 480.06,113.54" fill="none" stroke="#840000" stroke-width="0.46"/><polyline points="478.54,113.16 477.39,115.06 479.68,115.06 478.54,113.16" fill="none" stroke="#840000" stroke-width="0.46"/><circle cx="473.58" cy="114.30" r="8.38" fill="none" stroke="#840000" stroke-width="0.76"/><circle cx="476.25" cy="108.97" r="0.76" fill="#840000" stroke="#840000" stroke-width="0.46"/><circle cx="476.25" cy="119.63" r="0.76" fill="#840000" stroke="#840000" stroke-width="0.46"/><polyline points="515.87,285.75 518.16,281.94" fill="none" stroke="#840000" stroke-width="0.46"/><polyline points="518.16,289.56 518.16,281.94" fill="none" stroke="#840000" stroke-width="0.46"/><polyline points="518.16,281.94 520.45,285.75" fill="none" stroke="#840000" stroke-width="0.46"/><polyline points="528.07,188.98 515.87,188.98" fill="none" stroke="#840000" stroke-width="1.52"/><polyline points="528.07,184.40 515.87,184.40" fill="none" stroke="#840000" stroke-width="1.52"/><polyline points="80.01,142.49 76.20,144.78" fill="none" stroke="#840000" stroke-width="0.46"/><polyline points="83.82,144.78 76.20,144.78" fill="none" stroke="#840000" stroke-width="0.46"/><polyline points="76.20,144.78 80.01,147.07" fill="none" stroke="#840000" stroke-width="0.46"/><polyline points="521.97,167.64 537.21,167.64" fill="none" stroke="#009600" stroke-width="0.46"/><polyline points="243.84,160.02 255.27,160.02" fill="none" stroke="#009600" stroke-width="0.46"/><polyline points="255.27,106.68 255.27,140.97" fill="none" stroke="#009600" stroke-width="0.46"/><polyline points="506.73,198.12 506.73,201.93" fill="none" stroke="#009600" stroke-width="0.46"/><polyline points="491.49,167.64 491.49,175.26" fill="none" stroke="#009600" stroke-width="0.46"/><polyline points="567.69,167.64 567.69,175.26" fill="none" stroke="#009600" stroke-width="0.46"/><polyline points="83.82,160.02 64.77,160.02" fill="none" stroke="#009600" stroke-width="0.46"/><polyline points="537.21,114.30 544.83,114.30" fill="none" stroke="#009600" stroke-width="0.46"/><polyline points="476.25,76.20 476.25,80.01" fill="none" stroke="#009600" stroke-width="0.46"/><polyline points="521.97,167.64 521.97,175.26" fill="none" stroke="#009600" stroke-width="0.46"/><polyline points="236.22,156.21 236.22,160.02" fill="none" stroke="#009600" stroke-width="0.46"/><polyline points="476.25,201.93 491.49,201.93" fill="none" stroke="#009600" stroke-width="0.46"/><polyline points="521.97,156.21 521.97,167.64" fill="none" stroke="#009600" stroke-width="0.46"/><polyline points="552.45,201.93 537.21,201.93" fill="none" stroke="#009600" stroke-width="0.46"/><polyline points="182.88,114.30 182.88,121.92" fill="none" stroke="#009600" stroke-width="0.46"/><polyline points="567.69,167.64 567.69,163.83" fill="none" stroke="#009600" stroke-width="0.46"/><polyline points="567.69,201.93 552.45,201.93" fill="none" stroke="#009600" stroke-width="0.46"/><polyline points="434.34,114.30 453.39,114.30" fill="none" stroke="#009600" stroke-width="0.46"/><polyline points="552.45,198.12 552.45,201.93" fill="none" stroke="#009600" stroke-width="0.46"/><polyline points="434.34,83.82 434.34,80.01" fill="none" stroke="#009600" stroke-width="0.46"/><polyline points="83.82,144.78 64.77,144.78" fill="none" stroke="#009600" stroke-width="0.46"/><polyline points="518.16,289.56 518.16,297.18" fill="none" stroke="#009600" stroke-width="0.46"/><polyline points="419.10,114.30 434.34,114.30" fill="none" stroke="#009600" stroke-width="0.46"/><polyline points="194.31,114.30 182.88,114.30" fill="none" stroke="#009600" stroke-width="0.46"/><polyline points="552.45,167.64 552.45,175.26" fill="none" stroke="#009600" stroke-width="0.46"/><polyline points="537.21,167.64 537.21,175.26" fill="none" stroke="#009600" stroke-width="0.46"/><polyline points="567.69,129.54 567.69,133.35" fill="none" stroke="#009600" stroke-width="0.46"/><polyline points="255.27,106.68 270.51,106.68" fill="none" stroke="#009600" stroke-width="0.46"/><polyline points="506.73,167.64 521.97,167.64" fill="none" stroke="#009600" stroke-width="0.46"/><polyline points="544.83,148.59 537.21,148.59" fill="none" stroke="#009600" stroke-width="0.46"/><polyline points="476.25,167.64 491.49,167.64" fill="none" stroke="#009600" stroke-width="0.46"/><polyline points="224.79,106.68 255.27,106.68" fill="none" stroke="#009600" stroke-width="0.46"/><polyline points="236.22,121.92 270.51,121.92" fill="none" stroke="#009600" stroke-width="0.46"/><polyline points="537.21,201.93 521.97,201.93" fill="none" stroke="#009600" stroke-width="0.46"/><polyline points="537.21,83.82 537.21,80.01" fill="none" stroke="#009600" stroke-width="0.46"/><polyline points="506.73,167.64 506.73,175.26" fill="none" stroke="#009600" stroke-width="0.46"/><polyline points="236.22,121.92 236.22,140.97" fill="none" stroke="#009600" stroke-width="0.46"/><polyline points="491.49,167.64 506.73,167.64" fill="none" stroke="#009600" stroke-width="0.46"/><polyline points="537.21,106.68 537.21,114.30" fill="none" stroke="#009600" stroke-width="0.46"/><polyline points="476.25,129.54 476.25,167.64" fill="none" stroke="#009600" stroke-width="0.46"/><polyline points="243.84,160.02 243.84,167.64" fill="none" stroke="#009600" stroke-width="0.46"/><polyline points="236.22,160.02 243.84,160.02" fill="none" stroke="#009600" stroke-width="0.46"/><polyline points="476.25,167.64 476.25,175.26" fill="none" stroke="#009600" stroke-width="0.46"/><polyline points="434.34,106.68 434.34,114.30" fill="none" stroke="#009600" stroke-width="0.46"/><polyline points="255.27,160.02 255.27,156.21" fill="none" stroke="#009600" stroke-width="0.46"/><polyline points="83.82,163.83 83.82,160.02" fill="none" stroke="#009600" stroke-width="0.46"/><polyline points="537.21,148.59 537.21,114.30" fill="none" stroke="#009600" stroke-width="0.46"/><polyline points="434.34,80.01 476.25,80.01" fill="none" stroke="#009600" stroke-width="0.46"/><polyline points="224.79,121.92 236.22,121.92" fill="none" stroke="#009600" stroke-width="0.46"/><polyline points="567.69,76.20 567.69,99.06" fill="none" stroke="#009600" stroke-width="0.46"/><polyline points="521.97,201.93 521.97,213.36" fill="none" stroke="#009600" stroke-width="0.46"/><polyline points="537.21,198.12 537.21,201.93" fill="none" stroke="#009600" stroke-width="0.46"/><polyline points="537.21,80.01 476.25,80.01" fill="none" stroke="#009600" stroke-width="0.46"/><polyline points="491.49,198.12 491.49,201.93" fill="none" stroke="#009600" stroke-width="0.46"/><polyline points="491.49,201.93 506.73,201.93" fill="none" stroke="#009600" stroke-width="0.46"/><polyline points="506.73,201.93 521.97,201.93" fill="none" stroke="#009600" stroke-width="0.46"/><polyline points="476.25,80.01 476.25,99.06" fill="none" stroke="#009600" stroke-width="0.46"/><polyline points="552.45,167.64 567.69,167.64" fill="none" stroke="#009600" stroke-width="0.46"/><polyline points="537.21,167.64 552.45,167.64" fill="none" stroke="#009600" stroke-width="0.46"/><polyline points="518.16,114.30 537.21,114.30" fill="none" stroke="#009600" stroke-width="0.46"/><polyline points="476.25,198.12 476.25,201.93" fill="none" stroke="#009600" stroke-width="0.46"/><polyline points="521.97,198.12 521.97,201.93" fill="none" stroke="#009600" stroke-width="0.46"/><polyline points="567.69,198.12 567.69,201.93" fill="none" stroke="#009600" stroke-width="0.46"/><polyline points="518.16,297.18 544.83,297.18" fill="none" stroke="#009600" stroke-width="0.46"/><polyline points="83.82,152.40 64.77,152.40" fill="none" stroke="#009600" stroke-width="0.46"/><polyline points="537.21,183.64 537.21,175.26" fill="none" stroke="#a90000" stroke-width="0.46"/><polyline points="537.21,189.74 537.21,198.12" fill="none" stroke="#a90000" stroke-width="0.46"/><polyline points="506.73,183.64 506.73,175.26" fill="none" stroke="#a90000" stroke-width="0.46"/><polyline points="506.73,189.74 506.73,198.12" fill="none" stroke="#a90000" stroke-width="0.46"/><polyline points="83.82,152.40 83.82,152.40" fill="none" stroke="#a90000" stroke-width="0.46"/><polyline points="236.22,144.78 236.22,140.97" fill="none" stroke="#a90000" stroke-width="0.46"/><polyline points="236.22,152.40 236.22,156.21" fill="none" stroke="#a90000" stroke-width="0.46"/><polyline points="552.45,148.59 544.83,148.59" fill="none" stroke="#a90000" stroke-width="0.46"/><text x="548.64" y="149.32" fill="#a90000" font-size="5.14px" text-anchor="middle">G</text><polyline points="567.69,156.21 567.69,163.83" fill="none" stroke="#a90000" stroke-width="0.46"/><text x="566.96" y="160.02" fill="#a90000" font-size="5.14px" transform="rotate(90.00,566.96,160.02)" text-anchor="middle">S</text><polyline points="567.69,140.97 567.69,133.35" fill="none" stroke="#a90000" stroke-width="0.46"/><text x="566.96" y="137.16" fill="#a90000" font-size="5.14px" transform="rotate(90.00,566.96,137.16)" text-anchor="middle">D</text><polyline points="476.25,76.20 476.25,76.20" fill="none" stroke="#a90000" stroke-width="0.46"/><polyline points="434.34,102.87 434.34,106.68" fill="none" stroke="#a90000" stroke-width="0.46"/><polyline points="434.34,87.63 434.34,83.82" fill="none" stroke="#a90000" stroke-width="0.46"/><polyline points="83.82,163.83 83.82,163.83" fill="none" stroke="#a90000" stroke-width="0.46"/><polyline points="243.84,167.64 243.84,167.64" fill="none" stroke="#a90000" stroke-width="0.46"/><polyline points="552.45,183.64 552.45,175.26" fill="none" stroke="#a90000" stroke-width="0.46"/><polyline points="552.45,189.74 552.45,198.12" fill="none" stroke="#a90000" stroke-width="0.46"/><polyline points="552.45,114.30 544.83,114.30" fill="none" stroke="#a90000" stroke-width="0.46"/><text x="548.64" y="113.57" fill="#a90000" font-size="5.14px" text-anchor="middle">G</text><polyline points="567.69,106.68 567.69,99.06" fill="none" stroke="#a90000" stroke-width="0.46"/><text x="566.96" y="95.25" fill="#a90000" font-size="5.14px" transform="rotate(90.00,566.96,95.25)" text-anchor="middle">S</text><polyline points="567.69,121.92 567.69,129.54" fill="none" stroke="#a90000" stroke-width="0.46"/><text x="566.96" y="133.35" fill="#a90000" font-size="5.14px" transform="rotate(90.00,566.96,133.35)" text-anchor="middle">D</text><polyline points="491.49,183.64 491.49,175.26" fill="none" stroke="#a90000" stroke-width="0.46"/><polyline points="491.49,189.74 491.49,198.12" fill="none" stroke="#a90000" stroke-width="0.46"/><polyline points="567.69,183.64 567.69,175.26" fill="none" stroke="#a90000" stroke-width="0.46"/><polyline points="567.69,189.74 567.69,198.12" fill="none" stroke="#a90000" stroke-width="0.46"/><polyline points="255.27,144.78 255.27,140.97" fill="none" stroke="#a90000" stroke-width="0.46"/><polyline points="255.27,152.40 255.27,156.21" fill="none" stroke="#a90000" stroke-width="0.46"/><polyline points="182.88,121.92 182.88,121.92" fill="none" stroke="#a90000" stroke-width="0.46"/><polyline points="476.25,183.64 476.25,175.26" fill="none" stroke="#a90000" stroke-width="0.46"/><polyline points="476.25,189.74 476.25,198.12" fill="none" stroke="#a90000" stroke-width="0.46"/><polyline points="567.69,76.20 567.69,76.20" fill="none" stroke="#a90000" stroke-width="0.46"/><polyline points="537.21,102.87 537.21,106.68" fill="none" stroke="#a90000" stroke-width="0.46"/><polyline points="537.21,87.63 537.21,83.82" fill="none" stroke="#a90000" stroke-width="0.46"/><polyline points="217.17,106.68 224.79,106.68" fill="none" stroke="#a90000" stroke-width="0.46"/><text x="220.98" y="105.95" fill="#a90000" font-size="5.14px" text-anchor="middle" dominant-baseline="hanging">1</text><polyline points="201.93,114.30 194.31,114.30" fill="none" stroke="#a90000" stroke-width="0.46"/><text x="198.12" y="113.57" fill="#a90000" font-size="5.14px" text-anchor="middle" dominant-baseline="hanging">2</text><polyline points="217.17,121.92 224.79,121.92" fill="none" stroke="#a90000" stroke-width="0.46"/><text x="220.98" y="121.19" fill="#a90000" font-size="5.14px" text-anchor="middle" dominant-baseline="hanging">3</text><polyline points="521.97,156.21 521.97,156.21" fill="none" stroke="#a90000" stroke-width="0.46"/><polyline points="521.97,213.36 521.97,213.36" fill="none" stroke="#a90000" stroke-width="0.46"/><polyline points="461.01,114.30 453.39,114.30" fill="none" stroke="#a90000" stroke-width="0.46"/><text x="457.20" y="113.57" fill="#a90000" font-size="5.14px" text-anchor="middle">G</text><polyline points="476.25,106.68 476.25,99.06" fill="none" stroke="#a90000" stroke-width="0.46"/><text x="475.52" y="95.25" fill="#a90000" font-size="5.14px" transform="rotate(90.00,475.52,95.25)" text-anchor="middle">S</text><polyline points="476.25,121.92 476.25,129.54" fill="none" stroke="#a90000" stroke-width="0.46"/><text x="475.52" y="133.35" fill="#a90000" font-size="5.14px" transform="rotate(90.00,475.52,133.35)" text-anchor="middle">D</text><polyline points="518.16,289.56 518.16,289.56" fill="none" stroke="#a90000" stroke-width="0.46"/><polyline points="521.97,183.64 521.97,175.26" fill="none" stroke="#a90000" stroke-width="0.46"/><polyline points="521.97,189.74 521.97,198.12" fill="none" stroke="#a90000" stroke-width="0.46"/><polyline points="83.82,144.78 83.82,144.78" fill="none" stroke="#a90000" stroke-width="0.46"/><text x="537.21" y="179.07" fill="#006464" font-size="5.14px" text-anchor="middle" dominant-baseline="central">C34</text><text x="537.21" y="194.31" fill="#006464" font-size="5.14px" text-anchor="middle" dominant-baseline="central">10u</text><text x="506.73" y="179.07" fill="#006464" font-size="5.14px" text-anchor="middle" dominant-baseline="central">C32</text><text x="506.73" y="194.31" fill="#006464" font-size="5.14px" text-anchor="middle" dominant-baseline="central">10u</text><text x="91.44" y="152.40" fill="#006464" font-size="5.14px" text-anchor="middle" dominant-baseline="central">+3V3</text><text x="232.41" y="144.78" fill="#006464" font-size="5.14px" transform="rotate(90.00,232.41,144.78)" text-anchor="middle" dominant-baseline="central">TVS7</text><text x="571.50" y="160.02" fill="#006464" font-size="5.14px" text-anchor="middle" dominant-baseline="central">Q5</text><text x="476.25" y="64.77" fill="#006464" font-size="5.14px" text-anchor="middle" dominant-baseline="central">+5V</text><text x="434.34" y="95.25" fill="#006464" font-size="5.14px" transform="rotate(90.00,434.34,95.25)" text-anchor="middle" dominant-baseline="central">R24</text><text x="445.77" y="95.25" fill="#006464" font-size="5.14px" text-anchor="middle" dominant-baseline="central">100k</text><text x="87.63" y="171.45" fill="#006464" font-size="5.14px" text-anchor="middle" dominant-baseline="central">GND</text><text x="243.84" y="179.07" fill="#006464" font-size="5.14px" text-anchor="middle" dominant-baseline="central">GND</text><text x="552.45" y="179.07" fill="#006464" font-size="5.14px" text-anchor="middle" dominant-baseline="central">C35</text><text x="552.45" y="194.31" fill="#006464" font-size="5.14px" text-anchor="middle" dominant-baseline="central">10u</text><text x="571.50" y="125.73" fill="#006464" font-size="5.14px" text-anchor="middle" dominant-baseline="central">Q4</text><text x="491.49" y="179.07" fill="#006464" font-size="5.14px" text-anchor="middle" dominant-baseline="central">C31</text><text x="491.49" y="194.31" fill="#006464" font-size="5.14px" text-anchor="middle" dominant-baseline="central">100n</text><text x="567.69" y="179.07" fill="#006464" font-size="5.14px" text-anchor="middle" dominant-baseline="central">C36</text><text x="567.69" y="194.31" fill="#006464" font-size="5.14px" text-anchor="middle" dominant-baseline="central">10u</text><text x="251.46" y="144.78" fill="#006464" font-size="5.14px" transform="rotate(90.00,251.46,144.78)" text-anchor="middle" dominant-baseline="central">TVS8</text><text x="182.88" y="133.35" fill="#006464" font-size="5.14px" text-anchor="middle" dominant-baseline="central">GND</text><text x="476.25" y="179.07" fill="#006464" font-size="5.14px" text-anchor="middle" dominant-baseline="central">C30</text><text x="476.25" y="194.31" fill="#006464" font-size="5.14px" text-anchor="middle" dominant-baseline="central">100n</text><text x="567.69" y="64.77" fill="#006464" font-size="5.14px" text-anchor="middle" dominant-baseline="central">+3V3</text><text x="537.21" y="95.25" fill="#006464" font-size="5.14px" transform="rotate(90.00,537.21,95.25)" text-anchor="middle" dominant-baseline="central">R25</text><text x="548.64" y="95.25" fill="#006464" font-size="5.14px" text-anchor="middle" dominant-baseline="central">100k</text><text x="209.55" y="91.44" fill="#006464" font-size="5.14px" text-anchor="middle" dominant-baseline="central">SW4</text><text x="209.55" y="99.06" fill="#006464" font-size="5.14px" text-anchor="middle" dominant-baseline="central">12V 50mA</text><text x="521.97" y="156.21" fill="#006464" font-size="5.14px" text-anchor="middle" dominant-baseline="central">VDD</text><text x="521.97" y="213.36" fill="#006464" font-size="5.14px" text-anchor="middle" dominant-baseline="central">GND</text><text x="480.06" y="125.73" fill="#006464" font-size="5.14px" text-anchor="middle" dominant-baseline="central">Q3</text><text x="525.78" y="281.94" fill="#006464" font-size="5.14px" text-anchor="middle" dominant-baseline="central">VDD</text><text x="521.97" y="179.07" fill="#006464" font-size="5.14px" text-anchor="middle" dominant-baseline="central">C33</text><text x="521.97" y="194.31" fill="#006464" font-size="5.14px" text-anchor="middle" dominant-baseline="central">10u</text><text x="91.44" y="144.78" fill="#006464" font-size="5.14px" text-anchor="middle" dominant-baseline="central">+5V</text><circle cx="491.49" cy="201.93" r="1.37" fill="#009600"/><circle cx="255.27" cy="106.68" r="1.37" fill="#009600"/><circle cx="243.84" cy="160.02" r="1.37" fill="#009600"/><circle cx="537.21" cy="114.30" r="1.37" fill="#009600"/><circle cx="236.22" cy="121.92" r="1.37" fill="#009600"/><circle cx="434.34" cy="114.30" r="1.37" fill="#009600"/><circle cx="506.73" cy="201.93" r="1.37" fill="#009600"/><circle cx="567.69" cy="167.64" r="1.37" fill="#009600"/><circle cx="552.45" cy="167.64" r="1.37" fill="#009600"/><circle cx="476.25" cy="80.01" r="1.37" fill="#009600"/><circle cx="521.97" cy="167.64" r="1.37" fill="#009600"/><circle cx="521.97" cy="201.93" r="1.37" fill="#009600"/><circle cx="476.25" cy="167.64" r="1.37" fill="#009600"/><circle cx="537.21" cy="201.93" r="1.37" fill="#009600"/><circle cx="552.45" cy="201.93" r="1.37" fill="#009600"/><circle cx="537.21" cy="167.64" r="1.37" fill="#009600"/><circle cx="491.49" cy="167.64" r="1.37" fill="#009600"/><circle cx="506.73" cy="167.64" r="1.37" fill="#009600"/><text x="265.94" y="106.68" fill="#0f0f0f" font-size="5.14px">G1</text><text x="265.94" y="121.92" fill="#0f0f0f" font-size="5.14px">G2</text><text x="518.16" y="114.30" fill="#0f0f0f" font-size="5.14px">G2</text><text x="419.10" y="114.30" fill="#0f0f0f" font-size="5.14px">G1</text><text x="49.99" y="152.40" fill="#725600" font-size="5.14px">+3V3</text><polygon points="64.77,150.50 60.96,150.50 60.96,154.30 64.77,154.30 64.77,150.50" fill="none" stroke="#725600" stroke-width="0.46"/><text x="52.27" y="144.78" fill="#725600" font-size="5.14px">+5V</text><polygon points="64.77,142.88 60.96,142.88 60.96,146.69 64.77,146.69 64.77,142.88" fill="none" stroke="#725600" stroke-width="0.46"/><text x="550.47" y="297.18" fill="#725600" font-size="5.14px">VDD</text><polygon points="544.83,299.09 546.74,299.09 548.64,297.18 546.74,295.27 544.83,295.27 544.83,299.09" fill="none" stroke="#725600" stroke-width="0.46"/><text x="52.27" y="160.02" fill="#725600" font-size="5.14px">GND</text><polygon points="64.77,158.12 60.96,158.12 60.96,161.93 64.77,161.93 64.77,158.12" fill="none" stroke="#725600" stroke-width="0.46"/>
</svg>